<svg width="28" height="29" viewBox="0 0 28 29" fill="none" xmlns="http://www.w3.org/2000/svg">
<path d="M13.673 9.22198C12.797 9.22198 11.441 8.22598 10.013 8.26198C8.12901 8.28598 6.40101 9.35397 5.42901 11.046C3.47301 14.442 4.92501 19.458 6.83301 22.218C7.76901 23.562 8.87301 25.074 10.337 25.026C11.741 24.966 12.269 24.114 13.973 24.114C15.665 24.114 16.145 25.026 17.633 24.99C19.145 24.966 20.105 23.622 21.029 22.266C22.097 20.706 22.541 19.194 22.565 19.11C22.529 19.098 19.625 17.982 19.589 14.622C19.565 11.814 21.881 10.47 21.989 10.41C20.669 8.47798 18.641 8.26198 17.933 8.21398C16.085 8.06998 14.537 9.22198 13.673 9.22198ZM16.793 6.38998C17.573 5.45398 18.089 4.14598 17.945 2.84998C16.829 2.89798 15.485 3.59398 14.681 4.52998C13.961 5.35798 13.337 6.68998 13.505 7.96198C14.741 8.05798 16.013 7.32598 16.793 6.38998Z" fill="#080808"/>
</svg>
