<svg width="12" height="12" viewBox="0 0 12 12" fill="none" xmlns="http://www.w3.org/2000/svg">
<path fill-rule="evenodd" clip-rule="evenodd" d="M7.71208 2.82126C7.64312 2.71108 7.54153 2.62514 7.42144 2.5754C7.30135 2.52566 7.16875 2.5146 7.04208 2.54376L6.14308 2.75026C6.05095 2.77144 5.95521 2.77144 5.86308 2.75026L4.96408 2.54376C4.83741 2.5146 4.7048 2.52566 4.58472 2.5754C4.46463 2.62514 4.36303 2.71108 4.29408 2.82126L3.80408 3.60326C3.75408 3.68326 3.68658 3.75076 3.60658 3.80126L2.82458 4.29126C2.71459 4.36016 2.62877 4.46158 2.57905 4.58147C2.52932 4.70135 2.51815 4.83374 2.54708 4.96026L2.75358 5.86026C2.77468 5.95223 2.77468 6.04779 2.75358 6.13976L2.54708 7.03926C2.51803 7.16586 2.52915 7.29835 2.57888 7.41834C2.62861 7.53832 2.71449 7.63983 2.82458 7.70876L3.60658 8.19876C3.68658 8.24876 3.75408 8.31626 3.80458 8.39626L4.29458 9.17826C4.43558 9.40376 4.70458 9.51526 4.96408 9.45576L5.86308 9.24926C5.95521 9.22809 6.05095 9.22809 6.14308 9.24926L7.04258 9.45576C7.16917 9.48481 7.30167 9.47369 7.42166 9.42396C7.54164 9.37422 7.64315 9.28835 7.71208 9.17826L8.20208 8.39626C8.25208 8.31626 8.31958 8.24876 8.39958 8.19876L9.18208 7.70876C9.29217 7.63973 9.37801 7.53811 9.42765 7.41803C9.4773 7.29795 9.48828 7.16538 9.45908 7.03876L9.25308 6.13976C9.2319 6.04763 9.2319 5.95189 9.25308 5.85976L9.45958 4.96026C9.48867 4.83372 9.47763 4.70126 9.42799 4.58128C9.37835 4.4613 9.29257 4.35976 9.18258 4.29076L8.40008 3.80076C8.32019 3.75067 8.25267 3.68315 8.20258 3.60326L7.71208 2.82126ZM7.46058 4.88476C7.4915 4.82789 7.49917 4.76125 7.48195 4.69885C7.46474 4.63645 7.42399 4.58315 7.36829 4.55018C7.31258 4.51721 7.24626 4.50713 7.18327 4.52207C7.12029 4.537 7.06555 4.57579 7.03058 4.63026L5.72308 6.84326L4.93358 6.08726C4.91016 6.06321 4.88213 6.04413 4.85117 6.03114C4.82022 6.01816 4.78696 6.01154 4.75339 6.01169C4.71982 6.01183 4.68662 6.01874 4.65578 6.03199C4.62494 6.04525 4.59708 6.06458 4.57387 6.08883C4.55066 6.11308 4.53257 6.14176 4.52068 6.17316C4.50879 6.20455 4.50335 6.23802 4.50468 6.27156C4.506 6.3051 4.51407 6.33804 4.5284 6.3684C4.54273 6.39875 4.56303 6.42592 4.58808 6.44826L5.60508 7.42276C5.6323 7.44879 5.66505 7.46833 5.70088 7.47992C5.73671 7.49152 5.77469 7.49487 5.812 7.48973C5.84931 7.48458 5.88497 7.47108 5.91633 7.45022C5.94768 7.42936 5.97392 7.40168 5.99308 7.36926L7.46058 4.88476Z" fill="black"/>
</svg>
