<svg width="18" height="19" viewBox="0 0 18 19" fill="none" xmlns="http://www.w3.org/2000/svg">
<path d="M2.4375 5.62305C2.4375 5.15063 2.62517 4.69756 2.95922 4.36351C3.29327 4.02946 3.74633 3.8418 4.21875 3.8418H13.7812C14.2537 3.8418 14.7067 4.02946 15.0408 4.36351C15.3748 4.69756 15.5625 5.15063 15.5625 5.62305V11.4355C15.5625 11.908 15.3748 12.361 15.0408 12.6951C14.7067 13.0291 14.2537 13.2168 13.7812 13.2168H9.60113L5.4375 16.156V13.2168H4.21875C3.74633 13.2168 3.29327 13.0291 2.95922 12.6951C2.62517 12.361 2.4375 11.908 2.4375 11.4355V5.62305ZM4.21875 2.9043C3.49769 2.9043 2.80617 3.19074 2.2963 3.7006C1.78644 4.21046 1.5 4.90199 1.5 5.62305V11.4355C1.5 12.1566 1.78644 12.8481 2.2963 13.358C2.80617 13.8679 3.49769 14.1543 4.21875 14.1543H4.5V16.3368C4.5 17.0208 5.27137 17.4205 5.83012 17.026L9.89925 14.1543H13.7812C14.5023 14.1543 15.1938 13.8679 15.7037 13.358C16.2136 12.8481 16.5 12.1566 16.5 11.4355V5.62305C16.5 4.90199 16.2136 4.21046 15.7037 3.7006C15.1938 3.19074 14.5023 2.9043 13.7812 2.9043H4.21875ZM8.34375 9.4668H13.4062C13.5306 9.4668 13.6498 9.41741 13.7377 9.3295C13.8256 9.2416 13.875 9.12237 13.875 8.99805C13.875 8.87373 13.8256 8.7545 13.7377 8.66659C13.6498 8.57868 13.5306 8.5293 13.4062 8.5293H8.34375C8.21943 8.5293 8.1002 8.57868 8.01229 8.66659C7.92439 8.7545 7.875 8.87373 7.875 8.99805C7.875 9.12237 7.92439 9.2416 8.01229 9.3295C8.1002 9.41741 8.21943 9.4668 8.34375 9.4668ZM6.28125 8.5293H4.59375C4.46943 8.5293 4.3502 8.57868 4.26229 8.66659C4.17439 8.7545 4.125 8.87373 4.125 8.99805C4.125 9.12237 4.17439 9.2416 4.26229 9.3295C4.3502 9.41741 4.46943 9.4668 4.59375 9.4668H6.28125C6.40557 9.4668 6.5248 9.41741 6.61271 9.3295C6.70061 9.2416 6.75 9.12237 6.75 8.99805C6.75 8.87373 6.70061 8.7545 6.61271 8.66659C6.5248 8.57868 6.40557 8.5293 6.28125 8.5293ZM4.59375 10.5918C4.46943 10.5918 4.3502 10.6412 4.26229 10.7291C4.17439 10.817 4.125 10.9362 4.125 11.0605C4.125 11.1849 4.17439 11.3041 4.26229 11.392C4.3502 11.4799 4.46943 11.5293 4.59375 11.5293H10.0312C10.1556 11.5293 10.2748 11.4799 10.3627 11.392C10.4506 11.3041 10.5 11.1849 10.5 11.0605C10.5 10.9362 10.4506 10.817 10.3627 10.7291C10.2748 10.6412 10.1556 10.5918 10.0312 10.5918H4.59375ZM12.0938 11.5293C11.9694 11.5293 11.8502 11.4799 11.7623 11.392C11.6744 11.3041 11.625 11.1849 11.625 11.0605C11.625 10.9362 11.6744 10.817 11.7623 10.7291C11.8502 10.6412 11.9694 10.5918 12.0938 10.5918H13.4062C13.5306 10.5918 13.6498 10.6412 13.7377 10.7291C13.8256 10.817 13.875 10.9362 13.875 11.0605C13.875 11.1849 13.8256 11.3041 13.7377 11.392C13.6498 11.4799 13.5306 11.5293 13.4062 11.5293H12.0938Z" fill="#666666"/>
</svg>
