<svg width="68" height="48" viewBox="0 0 68 48" fill="none" xmlns="http://www.w3.org/2000/svg">
<g clip-path="url(#clip0_2240_11073)">
<path d="M58.59 15.53C58.0442 15.5535 57.5285 15.7867 57.1505 16.1812C56.7725 16.5756 56.5613 17.1007 56.5611 17.647C56.5608 18.1934 56.7715 18.7187 57.1491 19.1135C57.5267 19.5083 58.0422 19.742 58.588 19.766H58.592C59.1378 19.7425 59.6535 19.5093 60.0315 19.1148C60.4095 18.7204 60.6207 18.1953 60.6209 17.649C60.6212 17.1026 60.4105 16.5773 60.0329 16.1825C59.6553 15.7877 59.1398 15.554 58.594 15.53H58.59ZM56.472 30.354V30.412C56.472 30.6901 56.5268 30.9656 56.6332 31.2225C56.7397 31.4795 56.8957 31.713 57.0923 31.9097C57.289 32.1063 57.5225 32.2623 57.7795 32.3688C58.0364 32.4752 58.3119 32.53 58.59 32.53C58.8681 32.53 59.1436 32.4752 59.4005 32.3688C59.6575 32.2623 59.891 32.1063 60.0877 31.9097C60.2843 31.713 60.4403 31.4795 60.5468 31.2225C60.6532 30.9656 60.708 30.6901 60.708 30.412V30.35V23.234C60.708 22.9559 60.6532 22.6804 60.5468 22.4235C60.4403 22.1665 60.2843 21.933 60.0877 21.7363C59.891 21.5397 59.6575 21.3837 59.4005 21.2772C59.1436 21.1708 58.8681 21.116 58.59 21.116C58.3119 21.116 58.0364 21.1708 57.7795 21.2772C57.5225 21.3837 57.289 21.5397 57.0923 21.7363C56.8957 21.933 56.7397 22.1665 56.6332 22.4235C56.5268 22.6804 56.472 22.9559 56.472 23.234V23.296V23.292V30.354ZM51.532 15.53C52.0778 15.5535 52.5935 15.7867 52.9715 16.1812C53.3495 16.5756 53.5607 17.1007 53.5609 17.647C53.5612 18.1934 53.3505 18.7187 52.9729 19.1135C52.5953 19.5083 52.0798 19.742 51.534 19.766H43.766V22.59H48.706C49.2518 22.6135 49.7675 22.8467 50.1455 23.2412C50.5235 23.6356 50.7347 24.1607 50.7349 24.707C50.7352 25.2534 50.5245 25.7787 50.1469 26.1735C49.7693 26.5683 49.2538 26.802 48.708 26.826H43.764V30.414C43.764 30.9757 43.5409 31.5144 43.1437 31.9117C42.7464 32.3089 42.2077 32.532 41.646 32.532C41.0843 32.532 40.5455 32.3089 40.1483 31.9117C39.7511 31.5144 39.528 30.9757 39.528 30.414V30.352V30.356V17.638C39.528 16.474 40.472 15.53 41.636 15.53H41.646H51.532ZM67.766 19.764V28.234C67.766 31.2294 66.5761 34.102 64.4581 36.2201C62.34 38.3381 59.4674 39.528 56.472 39.528H52.236C47.786 44.726 41.216 47.998 33.884 47.998C26.552 47.998 19.982 44.726 15.558 39.56L15.53 39.528H11.294C8.29864 39.528 5.42597 38.3381 3.30794 36.2201C1.1899 34.102 0 31.2294 0 28.234V19.764C0 16.7686 1.1899 13.896 3.30794 11.7779C5.42597 9.6599 8.29864 8.47 11.294 8.47H15.53C19.98 3.272 26.55 0 33.882 0C41.214 0 47.784 3.272 52.208 8.438L52.236 8.47H56.472C57.9551 8.47 59.4238 8.76213 60.794 9.3297C62.1643 9.89728 63.4093 10.7292 64.4581 11.7779C65.5068 12.8267 66.3387 14.0717 66.9063 15.442C67.4739 16.8122 67.766 18.2809 67.766 19.764ZM28.942 15.53C28.3962 15.5535 27.8805 15.7867 27.5025 16.1812C27.1245 16.5756 26.9133 17.1007 26.9131 17.647C26.9128 18.1934 27.1235 18.7187 27.5011 19.1135C27.8787 19.5083 28.3942 19.742 28.94 19.766H28.942C29.4878 19.7425 30.0035 19.5093 30.3815 19.1148C30.7595 18.7204 30.9707 18.1953 30.9709 17.649C30.9712 17.1026 30.7605 16.5773 30.3829 16.1825C30.0053 15.7877 29.4878 15.554 28.942 15.53ZM26.824 30.354C26.8475 30.8998 27.0807 31.4155 27.4752 31.7935C27.8696 32.1715 28.3947 32.3827 28.941 32.3829C29.4874 32.3832 30.0127 32.1725 30.4075 31.7949C30.8023 31.4173 31.036 30.9018 31.06 30.356V23.292C31.0365 22.7462 30.8033 22.2305 30.4088 21.8525C30.0144 21.4745 29.4893 21.2633 28.943 21.2631C28.3966 21.2628 27.8713 21.4735 27.4765 21.8511C27.0817 22.2287 26.848 22.7442 26.824 23.29V23.294V30.354ZM20.47 30.588L23.764 18.588C23.8937 18.3183 23.9652 18.0243 23.9739 17.7251C23.9826 17.4259 23.9282 17.1283 23.8144 16.8515C23.7005 16.5747 23.5297 16.3249 23.3131 16.1185C23.0964 15.912 22.8387 15.7534 22.5568 15.6529C22.2749 15.5525 21.9749 15.5125 21.6765 15.5356C21.3781 15.5586 21.0879 15.6441 20.8247 15.7866C20.5615 15.9292 20.3313 16.1254 20.1489 16.3627C19.9665 16.6 19.836 16.873 19.766 17.164L19.764 17.178L18.352 22.354L16.94 17.178C16.8045 16.7229 16.5261 16.3236 16.1459 16.0391C15.7657 15.7547 15.304 15.6002 14.8292 15.5987C14.3544 15.5971 13.8917 15.7485 13.5096 16.0304C13.1276 16.3123 12.8465 16.7098 12.708 17.164L12.704 17.18L11.292 22.356L9.88 17.18C9.80521 16.8948 9.67195 16.6282 9.48869 16.3972C9.30543 16.1662 9.07617 15.9758 8.81543 15.8381C8.5547 15.7004 8.2682 15.6184 7.97409 15.5972C7.67998 15.5761 7.38469 15.6163 7.10695 15.7154C6.82921 15.8144 6.57508 15.9701 6.36068 16.1725C6.14628 16.3749 5.97629 16.6197 5.8615 16.8913C5.7467 17.1629 5.6896 17.4554 5.69381 17.7502C5.69803 18.0451 5.76348 18.3358 5.886 18.604L5.88 18.59L9.174 30.59C9.24785 31.098 9.50186 31.5625 9.88969 31.8989C10.2775 32.2352 10.7733 32.4209 11.2867 32.4221C11.8 32.4233 12.2967 32.24 12.6861 31.9055C13.0755 31.571 13.3317 31.1077 13.408 30.6L13.41 30.588L14.822 25.648L16.234 30.588C16.276 31.1198 16.5166 31.6164 16.908 31.979C17.2994 32.3415 17.8129 32.5435 18.3464 32.5448C18.8799 32.546 19.3943 32.3465 19.7874 31.9858C20.1805 31.6251 20.4235 31.1296 20.468 30.598L20.47 30.588ZM56.47 11.294H41.62C39.9422 11.294 38.3332 11.9605 37.1468 13.1468C35.9605 14.3332 35.294 15.9422 35.294 17.62V17.648V17.646V30.39C35.2939 31.9876 34.6899 33.5261 33.6031 34.697C32.5164 35.868 31.0271 36.5849 29.434 36.704L29.414 36.706H56.51C58.747 36.7049 60.8922 35.8158 62.474 34.234C64.0558 32.6522 64.9449 30.507 64.946 28.27V28.232V19.726C64.9449 17.489 64.0558 15.3438 62.474 13.762C60.8922 12.1802 58.747 11.2911 56.51 11.29H56.472L56.47 11.294Z" fill="url(#paint0_linear_2240_11073)"/>
</g>
<defs>
<linearGradient id="paint0_linear_2240_11073" x1="42" y1="-5.95446e-07" x2="68" y2="55" gradientUnits="userSpaceOnUse">
<stop offset="0.154999" stop-color="#9B73DB"/>
<stop offset="0.849999" stop-color="#5C4768"/>
</linearGradient>
<clipPath id="clip0_2240_11073">
<rect width="68" height="48" fill="white"/>
</clipPath>
</defs>
</svg>
