<svg width="18" height="19" viewBox="0 0 18 19" fill="none" xmlns="http://www.w3.org/2000/svg">
<path fill-rule="evenodd" clip-rule="evenodd" d="M3.9375 4.09905V10.7763C4.0185 10.7498 4.1035 10.7228 4.1925 10.6953C4.76325 10.522 5.5335 10.3293 6.1875 10.3293C7.251 10.3293 8.2425 10.6533 9.138 10.945L9.17475 10.957C10.1085 11.2615 10.9432 11.5293 11.8125 11.5293C12.5145 11.5293 13.5045 11.2593 14.0625 11.0845V4.45905C13.458 4.63305 12.5512 4.8543 11.8125 4.8543C10.749 4.8543 9.7575 4.5303 8.862 4.23855L8.82525 4.22655C7.8915 3.92205 7.0575 3.6543 6.1875 3.6543C5.6985 3.6543 5.055 3.7878 4.5015 3.93555C4.28625 3.99255 4.09275 4.0503 3.9375 4.09905ZM3.9375 11.965C4.095 11.9088 4.29675 11.8398 4.52025 11.7715C5.073 11.6035 5.70975 11.4543 6.1875 11.4543C7.0575 11.4543 7.8915 11.722 8.82525 12.0265L8.862 12.0385C9.75675 12.331 10.749 12.6543 11.8125 12.6543C12.7793 12.6543 14.0453 12.274 14.5485 12.1105C14.94 11.9845 15.1875 11.6208 15.1875 11.2278V4.22355C15.1875 3.57105 14.55 3.13755 13.956 3.31755C13.3702 3.4953 12.4635 3.7293 11.8125 3.7293C10.9425 3.7293 10.1085 3.46155 9.17475 3.15705L9.138 3.14505C8.24325 2.85255 7.251 2.5293 6.1875 2.5293C5.544 2.5293 4.782 2.6958 4.21125 2.84805C3.8737 2.93889 3.53926 3.04095 3.2085 3.15405L3.19275 3.16005L3.18825 3.16155H3.18675L3.375 3.6918L3.186 3.1623C3.07674 3.20127 2.98221 3.27307 2.91535 3.36786C2.84848 3.46265 2.81256 3.5758 2.8125 3.6918V16.2168C2.8125 16.366 2.87176 16.5091 2.97725 16.6145C3.08274 16.72 3.22582 16.7793 3.375 16.7793C3.52418 16.7793 3.66726 16.72 3.77275 16.6145C3.87824 16.5091 3.9375 16.366 3.9375 16.2168V11.965Z" fill="#FF7700"/>
</svg>
