<svg width="68" height="19" viewBox="0 0 68 19" fill="none" xmlns="http://www.w3.org/2000/svg">
<rect width="68" height="19" rx="9.5" fill="#D8F9CD"/>
<path fill-rule="evenodd" clip-rule="evenodd" d="M14.2351 5.23516C14.3054 5.16493 14.4007 5.12549 14.5001 5.12549C14.5995 5.12549 14.6948 5.16493 14.7651 5.23516L17.7651 8.23516C17.8019 8.26949 17.8315 8.31089 17.852 8.35689C17.8725 8.40289 17.8835 8.45255 17.8844 8.5029C17.8853 8.55325 17.876 8.60326 17.8571 8.64996C17.8383 8.69665 17.8102 8.73907 17.7746 8.77468C17.739 8.81029 17.6966 8.83836 17.6499 8.85722C17.6032 8.87608 17.5532 8.88534 17.5028 8.88445C17.4525 8.88357 17.4028 8.87254 17.3568 8.85205C17.3108 8.83155 17.2694 8.802 17.2351 8.76516L14.8751 6.40516V13.5002C14.8751 13.5996 14.8356 13.695 14.7652 13.7653C14.6949 13.8356 14.5995 13.8752 14.5001 13.8752C14.4006 13.8752 14.3052 13.8356 14.2349 13.7653C14.1646 13.695 14.1251 13.5996 14.1251 13.5002V6.40516L11.7651 8.76516C11.7307 8.802 11.6893 8.83155 11.6433 8.85205C11.5973 8.87254 11.5477 8.88357 11.4973 8.88445C11.447 8.88534 11.397 8.87608 11.3503 8.85722C11.3036 8.83836 11.2612 8.81029 11.2256 8.77468C11.1899 8.73907 11.1619 8.69665 11.143 8.64996C11.1242 8.60326 11.1149 8.55325 11.1158 8.5029C11.1167 8.45255 11.1277 8.40289 11.1482 8.35689C11.1687 8.31089 11.1982 8.26949 11.2351 8.23516L14.2351 5.23516Z" fill="#2E621D"/>
<path d="M25.1989 12.2102V11.3409L29.0341 5.27273H29.6648V6.61932H29.2386L26.3409 11.2045V11.2727H31.5057V12.2102H25.1989ZM29.3068 14V11.946V11.5412V5.27273H30.3125V14H29.3068ZM33.4425 14.0682C33.2322 14.0682 33.0518 13.9929 32.9013 13.8423C32.7507 13.6918 32.6754 13.5114 32.6754 13.3011C32.6754 13.0909 32.7507 12.9105 32.9013 12.7599C33.0518 12.6094 33.2322 12.5341 33.4425 12.5341C33.6527 12.5341 33.8331 12.6094 33.9837 12.7599C34.1342 12.9105 34.2095 13.0909 34.2095 13.3011C34.2095 13.4403 34.174 13.5682 34.103 13.6847C34.0348 13.8011 33.9425 13.8949 33.826 13.9659C33.7124 14.0341 33.5845 14.0682 33.4425 14.0682ZM38.5391 14.1193C37.897 14.1193 37.3501 13.9446 36.8984 13.5952C36.4467 13.2429 36.1016 12.733 35.8629 12.0653C35.6243 11.3949 35.505 10.5852 35.505 9.63636C35.505 8.69318 35.6243 7.88778 35.8629 7.22017C36.1044 6.54972 36.451 6.03835 36.9027 5.68608C37.3572 5.33097 37.9027 5.15341 38.5391 5.15341C39.1754 5.15341 39.7195 5.33097 40.1712 5.68608C40.6257 6.03835 40.9723 6.54972 41.2109 7.22017C41.4524 7.88778 41.5732 8.69318 41.5732 9.63636C41.5732 10.5852 41.4538 11.3949 41.2152 12.0653C40.9766 12.733 40.6314 13.2429 40.1797 13.5952C39.728 13.9446 39.1811 14.1193 38.5391 14.1193ZM38.5391 13.1818C39.1754 13.1818 39.6697 12.875 40.022 12.2614C40.3743 11.6477 40.5504 10.7727 40.5504 9.63636C40.5504 8.88068 40.4695 8.23722 40.3075 7.70597C40.1484 7.17472 39.9183 6.76989 39.6172 6.49148C39.3189 6.21307 38.9595 6.07386 38.5391 6.07386C37.9084 6.07386 37.4155 6.38494 37.0604 7.0071C36.7053 7.62642 36.5277 8.50284 36.5277 9.63636C36.5277 10.392 36.6072 11.0341 36.7663 11.5625C36.9254 12.0909 37.1541 12.4929 37.4524 12.7685C37.7536 13.044 38.1158 13.1818 38.5391 13.1818ZM43.1925 14V13.233L46.0732 10.0795C46.4112 9.71023 46.6896 9.3892 46.9084 9.11648C47.1271 8.84091 47.2891 8.58239 47.3942 8.34091C47.5021 8.09659 47.5561 7.84091 47.5561 7.57386C47.5561 7.26705 47.4822 7.00142 47.3345 6.77699C47.1896 6.55256 46.9908 6.37926 46.7379 6.2571C46.4851 6.13494 46.201 6.07386 45.8857 6.07386C45.5504 6.07386 45.2578 6.14347 45.0078 6.28267C44.7607 6.41903 44.5689 6.6108 44.4325 6.85795C44.299 7.10511 44.2322 7.39489 44.2322 7.72727H43.2266C43.2266 7.21591 43.3445 6.76705 43.5803 6.38068C43.8161 5.99432 44.1371 5.69318 44.5433 5.47727C44.9524 5.26136 45.4112 5.15341 45.9197 5.15341C46.4311 5.15341 46.8842 5.26136 47.2791 5.47727C47.674 5.69318 47.9837 5.98437 48.2081 6.35085C48.4325 6.71733 48.5447 7.125 48.5447 7.57386C48.5447 7.89489 48.4865 8.20881 48.37 8.51562C48.2564 8.8196 48.0575 9.15909 47.7734 9.53409C47.4922 9.90625 47.1016 10.3608 46.6016 10.8977L44.6413 12.9943V13.0625H48.6982V14H43.1925ZM54.907 12.3636V11.9034C54.907 11.5852 54.9723 11.294 55.103 11.0298C55.2365 10.7628 55.4297 10.5497 55.6825 10.3906C55.9382 10.2287 56.2479 10.1477 56.6115 10.1477C56.9808 10.1477 57.2905 10.2287 57.5405 10.3906C57.7905 10.5497 57.9794 10.7628 58.1072 11.0298C58.2351 11.294 58.299 11.5852 58.299 11.9034V12.3636C58.299 12.6818 58.2337 12.9744 58.103 13.2415C57.9751 13.5057 57.7848 13.7187 57.532 13.8807C57.282 14.0398 56.9751 14.1193 56.6115 14.1193C56.2422 14.1193 55.9311 14.0398 55.6783 13.8807C55.4254 13.7187 55.2337 13.5057 55.103 13.2415C54.9723 12.9744 54.907 12.6818 54.907 12.3636ZM55.7763 11.9034V12.3636C55.7763 12.6278 55.8388 12.8651 55.9638 13.0753C56.0888 13.2827 56.3047 13.3864 56.6115 13.3864C56.9098 13.3864 57.12 13.2827 57.2422 13.0753C57.3672 12.8651 57.4297 12.6278 57.4297 12.3636V11.9034C57.4297 11.6392 57.37 11.4034 57.2507 11.196C57.1314 10.9858 56.9183 10.8807 56.6115 10.8807C56.3132 10.8807 56.0987 10.9858 55.968 11.196C55.8402 11.4034 55.7763 11.6392 55.7763 11.9034ZM50.5604 7.36932V6.90909C50.5604 6.59091 50.6257 6.29972 50.7564 6.03551C50.8899 5.76847 51.0831 5.5554 51.3359 5.39631C51.5916 5.23437 51.9013 5.15341 52.2649 5.15341C52.6342 5.15341 52.9439 5.23437 53.1939 5.39631C53.4439 5.5554 53.6328 5.76847 53.7607 6.03551C53.8885 6.29972 53.9524 6.59091 53.9524 6.90909V7.36932C53.9524 7.6875 53.8871 7.98011 53.7564 8.24716C53.6286 8.51136 53.4382 8.72443 53.1854 8.88636C52.9354 9.04545 52.6286 9.125 52.2649 9.125C51.8956 9.125 51.5845 9.04545 51.3317 8.88636C51.0788 8.72443 50.8871 8.51136 50.7564 8.24716C50.6257 7.98011 50.5604 7.6875 50.5604 7.36932ZM51.4297 6.90909V7.36932C51.4297 7.63352 51.4922 7.87074 51.6172 8.08097C51.7422 8.28835 51.9581 8.39205 52.2649 8.39205C52.5632 8.39205 52.7734 8.28835 52.8956 8.08097C53.0206 7.87074 53.0831 7.63352 53.0831 7.36932V6.90909C53.0831 6.64489 53.0234 6.40909 52.9041 6.2017C52.7848 5.99148 52.5717 5.88636 52.2649 5.88636C51.9666 5.88636 51.7521 5.99148 51.6214 6.2017C51.4936 6.40909 51.4297 6.64489 51.4297 6.90909ZM50.8842 14L56.8842 5.27273H57.8558L51.8558 14H50.8842Z" fill="#2E621D"/>
</svg>
