<svg width="29" height="29" viewBox="0 0 29 29" fill="none" xmlns="http://www.w3.org/2000/svg">
<path d="M24.3055 12.1011H23.5V12.0596H14.5V16.0596H20.1515C19.327 18.3881 17.1115 20.0596 14.5 20.0596C11.1865 20.0596 8.5 17.3731 8.5 14.0596C8.5 10.7461 11.1865 8.05957 14.5 8.05957C16.0295 8.05957 17.421 8.63657 18.4805 9.57907L21.309 6.75057C19.523 5.08607 17.134 4.05957 14.5 4.05957C8.9775 4.05957 4.5 8.53707 4.5 14.0596C4.5 19.5821 8.9775 24.0596 14.5 24.0596C20.0225 24.0596 24.5 19.5821 24.5 14.0596C24.5 13.3891 24.431 12.7346 24.3055 12.1011Z" fill="#FFC107"/>
<path d="M5.65295 9.40507L8.93845 11.8146C9.82745 9.61357 11.9805 8.05957 14.5 8.05957C16.0295 8.05957 17.421 8.63657 18.4805 9.57907L21.309 6.75057C19.523 5.08607 17.134 4.05957 14.5 4.05957C10.659 4.05957 7.32795 6.22807 5.65295 9.40507Z" fill="#FF3D00"/>
<path d="M14.5 24.0597C17.083 24.0597 19.43 23.0712 21.2045 21.4637L18.1095 18.8447C17.072 19.6342 15.8038 20.0611 14.5 20.0597C11.899 20.0597 9.69053 18.4012 8.85853 16.0867L5.59753 18.5992C7.25253 21.8377 10.6135 24.0597 14.5 24.0597Z" fill="#4CAF50"/>
<path d="M24.3055 12.1011H23.5V12.0596H14.5V16.0596H20.1515C19.7571 17.1678 19.0467 18.1362 18.108 18.8451L18.1095 18.8441L21.2045 21.4631C20.9855 21.6621 24.5 19.0596 24.5 14.0596C24.5 13.3891 24.431 12.7346 24.3055 12.1011Z" fill="#1976D2"/>
</svg>
