<svg width="68" height="19" viewBox="0 0 68 19" fill="none" xmlns="http://www.w3.org/2000/svg">
<rect width="68" height="19" rx="9.5" fill="#F9C8D6"/>
<path fill-rule="evenodd" clip-rule="evenodd" d="M14.7654 13.7648C14.6951 13.8351 14.5998 13.8745 14.5004 13.8745C14.401 13.8745 14.3057 13.8351 14.2354 13.7648L11.2354 10.7648C11.1986 10.7305 11.169 10.6891 11.1485 10.6431C11.128 10.5971 11.117 10.5475 11.1161 10.4971C11.1152 10.4468 11.1245 10.3967 11.1433 10.35C11.1622 10.3033 11.1903 10.2609 11.2259 10.2253C11.2615 10.1897 11.3039 10.1616 11.3506 10.1428C11.3973 10.1239 11.4473 10.1147 11.4977 10.1155C11.548 10.1164 11.5977 10.1275 11.6437 10.148C11.6897 10.1684 11.7311 10.198 11.7654 10.2348L14.1254 12.5948V5.49984C14.1254 5.40039 14.1649 5.305 14.2352 5.23468C14.3056 5.16435 14.401 5.12484 14.5004 5.12484C14.5999 5.12484 14.6952 5.16435 14.7656 5.23468C14.8359 5.305 14.8754 5.40039 14.8754 5.49984V12.5948L17.2354 10.2348C17.2697 10.198 17.3111 10.1684 17.3571 10.148C17.4031 10.1275 17.4528 10.1164 17.5032 10.1155C17.5535 10.1147 17.6035 10.1239 17.6502 10.1428C17.6969 10.1616 17.7393 10.1897 17.7749 10.2253C17.8105 10.2609 17.8386 10.3033 17.8575 10.35C17.8763 10.3967 17.8856 10.4468 17.8847 10.4971C17.8838 10.5475 17.8728 10.5971 17.8523 10.6431C17.8318 10.6891 17.8023 10.7305 17.7654 10.7648L14.7654 13.7648Z" fill="#A90E37"/>
<path d="M25.4034 14V13.233L28.2841 10.0795C28.6222 9.71023 28.9006 9.3892 29.1193 9.11648C29.3381 8.84091 29.5 8.58239 29.6051 8.34091C29.7131 8.09659 29.767 7.84091 29.767 7.57386C29.767 7.26705 29.6932 7.00142 29.5455 6.77699C29.4006 6.55256 29.2017 6.37926 28.9489 6.2571C28.696 6.13494 28.4119 6.07386 28.0966 6.07386C27.7614 6.07386 27.4688 6.14347 27.2188 6.28267C26.9716 6.41903 26.7798 6.6108 26.6435 6.85795C26.5099 7.10511 26.4432 7.39489 26.4432 7.72727H25.4375C25.4375 7.21591 25.5554 6.76705 25.7912 6.38068C26.027 5.99432 26.348 5.69318 26.7543 5.47727C27.1634 5.26136 27.6222 5.15341 28.1307 5.15341C28.642 5.15341 29.0952 5.26136 29.4901 5.47727C29.8849 5.69318 30.1946 5.98437 30.419 6.35085C30.6435 6.71733 30.7557 7.125 30.7557 7.57386C30.7557 7.89489 30.6974 8.20881 30.581 8.51562C30.4673 8.8196 30.2685 9.15909 29.9844 9.53409C29.7031 9.90625 29.3125 10.3608 28.8125 10.8977L26.8523 12.9943V13.0625H30.9091V14H25.4034ZM33.419 14.0682C33.2088 14.0682 33.0284 13.9929 32.8778 13.8423C32.7273 13.6918 32.652 13.5114 32.652 13.3011C32.652 13.0909 32.7273 12.9105 32.8778 12.7599C33.0284 12.6094 33.2088 12.5341 33.419 12.5341C33.6293 12.5341 33.8097 12.6094 33.9602 12.7599C34.1108 12.9105 34.1861 13.0909 34.1861 13.3011C34.1861 13.4403 34.1506 13.5682 34.0795 13.6847C34.0114 13.8011 33.919 13.8949 33.8026 13.9659C33.6889 14.0341 33.5611 14.0682 33.419 14.0682ZM35.9737 14V13.233L38.8544 10.0795C39.1925 9.71023 39.4709 9.3892 39.6896 9.11648C39.9084 8.84091 40.0703 8.58239 40.1754 8.34091C40.2834 8.09659 40.3374 7.84091 40.3374 7.57386C40.3374 7.26705 40.2635 7.00142 40.1158 6.77699C39.9709 6.55256 39.772 6.37926 39.5192 6.2571C39.2663 6.13494 38.9822 6.07386 38.6669 6.07386C38.3317 6.07386 38.0391 6.14347 37.7891 6.28267C37.5419 6.41903 37.3501 6.6108 37.2138 6.85795C37.0803 7.10511 37.0135 7.39489 37.0135 7.72727H36.0078C36.0078 7.21591 36.1257 6.76705 36.3615 6.38068C36.5973 5.99432 36.9183 5.69318 37.3246 5.47727C37.7337 5.26136 38.1925 5.15341 38.701 5.15341C39.2124 5.15341 39.6655 5.26136 40.0604 5.47727C40.4553 5.69318 40.7649 5.98437 40.9893 6.35085C41.2138 6.71733 41.326 7.125 41.326 7.57386C41.326 7.89489 41.2678 8.20881 41.1513 8.51562C41.0376 8.8196 40.8388 9.15909 40.5547 9.53409C40.2734 9.90625 39.8828 10.3608 39.3828 10.8977L37.4226 12.9943V13.0625H41.4794V14H35.9737ZM43.2393 14V13.233L46.12 10.0795C46.4581 9.71023 46.7365 9.3892 46.9553 9.11648C47.174 8.84091 47.3359 8.58239 47.4411 8.34091C47.549 8.09659 47.603 7.84091 47.603 7.57386C47.603 7.26705 47.5291 7.00142 47.3814 6.77699C47.2365 6.55256 47.0376 6.37926 46.7848 6.2571C46.532 6.13494 46.2479 6.07386 45.9325 6.07386C45.5973 6.07386 45.3047 6.14347 45.0547 6.28267C44.8075 6.41903 44.6158 6.6108 44.4794 6.85795C44.3459 7.10511 44.2791 7.39489 44.2791 7.72727H43.2734C43.2734 7.21591 43.3913 6.76705 43.6271 6.38068C43.8629 5.99432 44.1839 5.69318 44.5902 5.47727C44.9993 5.26136 45.4581 5.15341 45.9666 5.15341C46.478 5.15341 46.9311 5.26136 47.326 5.47727C47.7209 5.69318 48.0305 5.98437 48.255 6.35085C48.4794 6.71733 48.5916 7.125 48.5916 7.57386C48.5916 7.89489 48.5334 8.20881 48.4169 8.51562C48.3033 8.8196 48.1044 9.15909 47.8203 9.53409C47.5391 9.90625 47.1484 10.3608 46.6484 10.8977L44.6882 12.9943V13.0625H48.745V14H43.2393ZM54.9538 12.3636V11.9034C54.9538 11.5852 55.0192 11.294 55.1499 11.0298C55.2834 10.7628 55.4766 10.5497 55.7294 10.3906C55.9851 10.2287 56.2947 10.1477 56.6584 10.1477C57.0277 10.1477 57.3374 10.2287 57.5874 10.3906C57.8374 10.5497 58.0263 10.7628 58.1541 11.0298C58.282 11.294 58.3459 11.5852 58.3459 11.9034V12.3636C58.3459 12.6818 58.2805 12.9744 58.1499 13.2415C58.022 13.5057 57.8317 13.7187 57.5788 13.8807C57.3288 14.0398 57.022 14.1193 56.6584 14.1193C56.2891 14.1193 55.978 14.0398 55.7251 13.8807C55.4723 13.7187 55.2805 13.5057 55.1499 13.2415C55.0192 12.9744 54.9538 12.6818 54.9538 12.3636ZM55.8232 11.9034V12.3636C55.8232 12.6278 55.8857 12.8651 56.0107 13.0753C56.1357 13.2827 56.3516 13.3864 56.6584 13.3864C56.9567 13.3864 57.1669 13.2827 57.2891 13.0753C57.4141 12.8651 57.4766 12.6278 57.4766 12.3636V11.9034C57.4766 11.6392 57.4169 11.4034 57.2976 11.196C57.1783 10.9858 56.9652 10.8807 56.6584 10.8807C56.3601 10.8807 56.1456 10.9858 56.0149 11.196C55.8871 11.4034 55.8232 11.6392 55.8232 11.9034ZM50.6072 7.36932V6.90909C50.6072 6.59091 50.6726 6.29972 50.8033 6.03551C50.9368 5.76847 51.13 5.5554 51.3828 5.39631C51.6385 5.23437 51.9482 5.15341 52.3118 5.15341C52.6811 5.15341 52.9908 5.23437 53.2408 5.39631C53.4908 5.5554 53.6797 5.76847 53.8075 6.03551C53.9354 6.29972 53.9993 6.59091 53.9993 6.90909V7.36932C53.9993 7.6875 53.9339 7.98011 53.8033 8.24716C53.6754 8.51136 53.4851 8.72443 53.2322 8.88636C52.9822 9.04545 52.6754 9.125 52.3118 9.125C51.9425 9.125 51.6314 9.04545 51.3786 8.88636C51.1257 8.72443 50.9339 8.51136 50.8033 8.24716C50.6726 7.98011 50.6072 7.6875 50.6072 7.36932ZM51.4766 6.90909V7.36932C51.4766 7.63352 51.5391 7.87074 51.6641 8.08097C51.7891 8.28835 52.005 8.39205 52.3118 8.39205C52.6101 8.39205 52.8203 8.28835 52.9425 8.08097C53.0675 7.87074 53.13 7.63352 53.13 7.36932V6.90909C53.13 6.64489 53.0703 6.40909 52.951 6.2017C52.8317 5.99148 52.6186 5.88636 52.3118 5.88636C52.0135 5.88636 51.799 5.99148 51.6683 6.2017C51.5405 6.40909 51.4766 6.64489 51.4766 6.90909ZM50.9311 14L56.9311 5.27273H57.9027L51.9027 14H50.9311Z" fill="#A90E37"/>
</svg>
