<svg width="168" height="130" viewBox="0 0 168 130" fill="none" xmlns="http://www.w3.org/2000/svg">
<path fill-rule="evenodd" clip-rule="evenodd" d="M60.5209 32.2965C60.5209 39.9406 72.5583 64.3671 83.9797 64.3671C95.4014 64.3671 107.479 41.0209 107.479 31.4154C107.479 25.3422 101.83 15.5142 83.9123 15.5142C65.9951 15.5142 60.5209 26.3708 60.5209 32.2965ZM75.7135 34.0071C71.4349 29.3885 68.7795 24.7067 68.7795 24.7067C68.7795 24.7067 73.1546 22.5283 76.0128 21.9466C76.2563 21.8971 76.5047 21.8439 76.7591 21.7899C79.4908 21.2082 82.8888 20.485 87.7889 22.2441C97.984 25.9045 102.331 32.751 102.331 32.751C102.331 32.751 95.77 27.4678 88.5455 26.407C84.3838 25.7958 76.6428 28.2748 76.6428 28.2748C76.6428 28.2748 79.3335 31.1227 81.5235 35.2926C81.8687 35.9499 82.2051 36.5517 82.5272 37.1279C84.2481 40.2057 85.5555 42.5438 85.5555 48.6441C85.5555 53.0948 82.1914 59.7087 82.1914 59.7087C82.1914 59.7087 84.0808 51.0912 82.557 44.2775C81.4558 39.3519 80.6062 38.5941 78.6039 36.8076C77.8364 36.123 76.8991 35.2871 75.7135 34.0071Z" fill="black"/>
<path fill-rule="evenodd" clip-rule="evenodd" d="M46.7565 85.9147H50.517V95.0884H56.3865V98.0854H46.7565V85.9147ZM65.5852 96.0764H61.3012L60.7125 98.0854H56.8687L61.443 85.9147H65.5436L70.1182 98.0854H66.183L65.5852 96.0764ZM64.7967 93.4447L63.4517 89.0696L62.1149 93.4447H64.7967ZM71.3718 85.915H76.9589C78.0604 85.915 78.9501 86.0644 79.628 86.3631C80.3059 86.6619 80.8662 87.0908 81.3091 87.6499C81.752 88.2087 82.073 88.8591 82.2722 89.6009C82.4714 90.3423 82.5709 91.1282 82.5709 91.9585C82.5709 93.2592 82.423 94.2679 82.1271 94.9846C81.8305 95.7011 81.4196 96.3017 80.8944 96.7863C80.3683 97.2706 79.8036 97.593 79.2002 97.7533C78.3758 97.9747 77.6287 98.0854 76.9589 98.0854H71.3718V85.915ZM75.1324 88.6709V95.321H76.0541C76.8401 95.321 77.3991 95.2338 77.731 95.0593C78.063 94.885 78.3231 94.5806 78.5113 94.146C78.6995 93.7118 78.7937 93.0076 78.7937 92.0332C78.7937 90.7436 78.5834 89.8609 78.1627 89.385C77.7421 88.909 77.0448 88.6709 76.0708 88.6709H75.1327H75.1324ZM83.8911 94.0589L87.4692 93.8348C87.5467 94.4157 87.7045 94.8585 87.9425 95.1631C88.3299 95.6558 88.8834 95.9021 89.603 95.9021C90.1396 95.9021 90.5533 95.7761 90.8442 95.5241C91.1346 95.2725 91.2798 94.9807 91.2798 94.6485C91.2798 94.3327 91.1415 94.0504 90.8648 93.8014C90.5879 93.5525 89.9459 93.3173 88.9387 93.0958C87.2892 92.7252 86.1132 92.2326 85.4107 91.6181C84.7022 91.0038 84.348 90.2207 84.348 89.2687C84.348 88.6433 84.5292 88.0525 84.8915 87.4962C85.2538 86.94 85.799 86.5028 86.527 86.1846C87.2549 85.8662 88.2525 85.707 89.5198 85.707C91.0751 85.707 92.2609 85.9963 93.0772 86.5748C93.8936 87.1533 94.3792 88.0734 94.5343 89.3352L90.9893 89.5426C90.8952 88.9949 90.6973 88.5964 90.3957 88.3473C90.0941 88.0981 89.6777 87.9736 89.1463 87.9738C88.7091 87.9738 88.3798 88.0664 88.1584 88.2516C87.9369 88.437 87.8262 88.6626 87.8262 88.9284C87.8262 89.1221 87.9175 89.2964 88.1001 89.4512C88.2774 89.6119 88.6981 89.7614 89.3622 89.8997C91.006 90.2539 92.1834 90.6122 92.8945 90.9748C93.6055 91.3373 94.1231 91.7869 94.4472 92.3237C94.771 92.8609 94.9329 93.4615 94.9329 94.1254C94.9329 94.9057 94.7171 95.6252 94.2853 96.2841C93.8534 96.9427 93.2501 97.4422 92.4755 97.7824C91.7005 98.1229 90.7235 98.2931 89.5447 98.2931C87.4748 98.2931 86.0414 97.8946 85.2443 97.0975C84.0486 95.9018 83.9964 95.2879 83.8911 94.0589ZM96.809 85.9147H103.06C104.422 85.9147 105.442 86.2386 106.12 86.8863C106.798 87.5336 107.137 88.4551 107.137 89.6507C107.137 90.8793 106.767 91.8396 106.029 92.5314C105.29 93.2232 104.162 93.5691 102.645 93.5691H100.586V98.0854H96.809V85.9147ZM100.586 91.1035H101.508C102.233 91.1035 102.742 90.9776 103.035 90.7258C103.329 90.4738 103.475 90.1514 103.475 89.7585C103.475 89.3765 103.348 89.0528 103.094 88.7872C102.839 88.5214 102.36 88.3886 101.657 88.3886H100.586V91.1035ZM115.148 96.0764H110.864L110.275 98.0854H106.431L111.005 85.9147H115.107L119.681 98.0854H115.746L115.148 96.0764ZM114.359 93.4447L113.014 89.0696L111.678 93.4447H114.359Z" fill="black"/>
</svg>
