<svg width="38" height="38" viewBox="0 0 38 38" fill="none" xmlns="http://www.w3.org/2000/svg">
<rect width="38" height="38" rx="19" fill="#D8F9CD"/>
<rect x="3" y="3" width="32" height="32" rx="16" fill="#2E621D"/>
<path fill-rule="evenodd" clip-rule="evenodd" d="M25.3651 14.5104C25.5115 14.6657 25.6258 14.8484 25.7016 15.0479C25.7774 15.2475 25.8131 15.46 25.8068 15.6734C25.8004 15.8867 25.7521 16.0967 25.6645 16.2914C25.577 16.4861 25.452 16.6616 25.2966 16.8079L17.8711 23.8054C17.5608 24.0978 17.148 24.2565 16.7218 24.2473C16.2956 24.2381 15.89 24.0618 15.5926 23.7564L12.4606 20.5389C12.16 20.2301 11.9943 19.8144 12.0001 19.3835C12.006 18.9525 12.1827 18.5415 12.4916 18.2409C12.8004 17.9403 13.216 17.7747 13.647 17.7805C14.078 17.7863 14.489 17.9631 14.7896 18.2719L16.8061 20.3434L23.0686 14.4424C23.3822 14.1468 23.8004 13.988 24.2312 14.0007C24.6619 14.0135 25.07 14.1968 25.3656 14.5104" fill="white"/>
</svg>
