<svg width="24" height="24" viewBox="0 0 24 24" fill="none" xmlns="http://www.w3.org/2000/svg">
<path d="M19.92 20.73C20.38 21.19 21.09 20.48 20.63 20.03L16.88 16.27C18.1958 14.8147 18.9229 12.9219 18.92 10.96C18.92 6.57 15.35 3 10.96 3C6.57 3 3 6.57 3 10.96C3 15.35 6.57 18.92 10.96 18.92C12.94 18.92 14.77 18.19 16.17 16.98L19.92 20.73ZM3.999 10.96C3.999 7.12 7.129 4 10.959 4C14.799 4 17.919 7.12 17.919 10.96C17.919 14.8 14.799 17.92 10.959 17.92C7.129 17.92 3.999 14.8 3.999 10.96Z" fill="#1F1F1F"/>
</svg>
