<svg width="176" height="30" viewBox="0 0 176 30" fill="none" xmlns="http://www.w3.org/2000/svg">
<rect x="0.5" y="1" width="175" height="28" stroke="black"/>
<rect y="4" width="24" height="2" rx="1" fill="#E7E7E7"/>
<rect y="14" width="24" height="2" rx="1" fill="#E7E7E7"/>
<rect y="24" width="24" height="2" rx="1" fill="#E7E7E7"/>
<g clip-path="url(#clip0_2151_10830)">
<path d="M87.9725 4.9825C87.738 4.11602 87.2807 3.32609 86.6459 2.69139C86.0112 2.05669 85.2212 1.59938 84.3547 1.365C81.1825 0.5 68.4165 0.5 68.4165 0.5C68.4165 0.5 55.65 0.52625 52.4782 1.39125C51.6118 1.62567 50.8219 2.083 50.1872 2.7177C49.5525 3.35239 49.0951 4.1423 48.8607 5.00875C47.9012 10.645 47.529 19.2327 48.887 24.6432C49.1214 25.5097 49.5787 26.2996 50.2134 26.9343C50.8481 27.569 51.638 28.0263 52.5045 28.2607C55.6765 29.1257 68.4427 29.1257 68.4427 29.1257C68.4427 29.1257 81.209 29.1257 84.381 28.2607C85.2474 28.0263 86.0373 27.569 86.672 26.9343C87.3067 26.2996 87.7641 25.5097 87.9985 24.6432C89.0102 18.9992 89.3222 10.4167 87.9722 4.98275" fill="#FF0000"/>
<path d="M64.3516 20.947L74.9421 14.813L64.3516 8.67871V20.947Z" fill="white"/>
<path d="M170.81 8.81019C172.199 8.81019 173.248 9.07219 173.982 9.57019C174.716 10.0684 175.24 10.8549 175.555 11.9297C175.869 13.0044 176 14.4722 176 16.3597V19.4269H169.263V20.3704L169.368 22.9657C169.447 23.5424 169.578 23.9619 169.788 24.2239C169.998 24.4862 170.338 24.6172 170.784 24.6172C171.387 24.6172 171.806 24.3814 172.016 23.9097C172.252 23.4377 172.356 22.6512 172.383 21.5764L175.869 21.7862C175.896 21.9434 175.896 22.1532 175.896 22.4152C175.896 24.0667 175.45 25.2989 174.532 26.1114C173.615 26.9239 172.356 27.3434 170.705 27.3434C168.713 27.3434 167.324 26.7144 166.537 25.4824C165.751 24.2502 165.331 22.3102 165.331 19.7152V16.5432C165.42 12.0869 166.204 8.82319 170.81 8.81019ZM122.34 9.15094V22.2842C122.34 23.0707 122.419 23.6474 122.602 23.9882C122.974 24.7169 123.939 24.5307 124.463 24.1717C124.766 23.967 125.01 23.687 125.171 23.3592V9.15069H129.182V27.0549H126.036L125.695 24.8529H125.617C124.752 26.5044 123.467 27.3432 121.763 27.3432C119.141 27.3367 118.499 25.4472 118.346 23.5282L118.336 23.3929C118.317 23.1023 118.306 22.8112 118.303 22.5199V9.15094H122.34ZM143.023 9.15094V22.2842C143.023 23.0707 143.102 23.6474 143.285 23.9882C143.658 24.7169 144.622 24.5307 145.146 24.1717C145.449 23.967 145.693 23.687 145.854 23.3592V9.15069H149.865V27.0549H146.719L146.378 24.8529H146.3C145.435 26.5044 144.15 27.3432 142.446 27.3432C139.824 27.3367 139.182 25.4472 139.029 23.5282L139.019 23.3929C139 23.1023 138.989 22.8112 138.986 22.5199V9.15094H143.023ZM110.701 8.81019C112.012 8.81019 113.086 9.07219 113.873 9.62269C114.659 10.1732 115.262 11.0122 115.629 12.1654C115.996 13.3189 116.18 14.8654 116.18 16.7792V19.3742C116.18 21.2879 115.996 22.8084 115.629 23.9617C115.262 25.1154 114.685 25.9542 113.873 26.5047C113.06 27.0289 111.959 27.3172 110.596 27.3172C109.18 27.3434 108.079 27.0552 107.267 26.5309C106.454 25.9804 105.877 25.1414 105.537 23.9882C105.196 22.8347 105.039 21.3142 105.039 19.4007V16.8052C105.039 14.8914 105.222 13.3187 105.615 12.1652C106.008 10.9857 106.611 10.1467 107.45 9.62269C108.289 9.09819 109.364 8.80994 110.701 8.80994M156.156 1.62744V11.0644H156.182C156.549 10.3829 157.021 9.83244 157.677 9.41294C158.289 9.00158 159.01 8.78254 159.747 8.78394C160.717 8.78394 161.451 9.04594 162.002 9.54394C162.552 10.0684 162.946 10.8809 163.182 12.0082C163.41 13.1002 163.54 14.6104 163.548 16.5149L163.549 16.7007V19.5317C163.549 22.1792 163.208 24.1454 162.579 25.4037C161.924 26.6619 160.927 27.2912 159.564 27.2912C158.804 27.2912 158.122 27.1077 157.493 26.7669C156.937 26.4425 156.476 25.9777 156.156 25.4189L156.104 25.3249H156.025L155.606 27.0289H152.277V1.62769L156.156 1.62744ZM140.113 2.54494V5.79519H136.128V27.0549H132.196V5.79544H128.186V2.54519L140.113 2.54494ZM96.8857 2.54494L96.8883 2.55494C96.9265 2.72519 97.4565 5.08144 98.0395 7.82669L98.0855 8.04419L98.155 8.37294L98.2015 8.59369L98.2248 8.70444L98.2713 8.92644L98.2945 9.03769L98.3408 9.26044L98.4083 9.58619C98.802 11.4872 99.1778 13.3937 99.4025 14.7607H99.5075C99.7227 13.5344 100.036 11.9652 100.369 10.3629L100.457 9.94444C100.5 9.73478 100.545 9.52544 100.589 9.31644L100.658 8.99219C101.11 6.8689 101.577 4.74852 102.057 2.63119L102.064 2.59744L102.076 2.54494H106.087L101.447 19.0862V27.0289H97.4888V19.1122H97.4625L92.875 2.54469L96.8857 2.54494ZM110.622 11.5887C110.072 11.5887 109.705 11.8772 109.469 12.4802C109.233 13.0832 109.128 14.0004 109.128 15.2852V20.8687C109.128 22.1794 109.233 23.1492 109.443 23.7262C109.652 24.3029 110.046 24.5912 110.622 24.5912C111.173 24.5912 111.566 24.3029 111.802 23.7262C112.038 23.1492 112.142 22.1794 112.142 20.8687V15.2849C112.142 14.0004 112.038 13.0567 111.802 12.4799C111.566 11.8772 111.173 11.5887 110.622 11.5887ZM156.864 12.1132C156.545 12.4082 156.317 12.7719 156.182 13.2267L156.156 13.3189V23.4899C156.481 24.0404 156.943 24.4074 157.755 24.4337C158.175 24.4337 158.515 24.2764 158.778 23.9619C159.04 23.6474 159.223 23.1231 159.328 22.3889C159.429 21.6844 159.481 20.7141 159.485 19.4779V16.9889C159.485 15.5734 159.433 14.4987 159.354 13.7384C159.249 12.9782 159.119 12.4277 158.883 12.1132C158.426 11.4577 157.441 11.4657 156.864 12.1132ZM170.732 11.5102C170.286 11.5364 169.971 11.6674 169.788 11.9034C169.578 12.1654 169.447 12.5587 169.368 13.1354C169.291 13.7004 169.264 15.6754 169.263 15.7544V17.0414H172.199V15.9064V15.9282C172.198 16.3249 172.189 15.6979 172.171 14.9282L172.169 14.8247C172.152 14.1482 172.128 13.3939 172.094 13.1354C172.016 12.5324 171.885 12.1129 171.675 11.8772C171.465 11.6412 171.151 11.5102 170.731 11.5102" fill="#282828"/>
</g>
<defs>
<clipPath id="clip0_2151_10830">
<rect width="128" height="29" fill="white" transform="translate(48 0.5)"/>
</clipPath>
</defs>
</svg>
