<svg width="71" height="19" viewBox="0 0 71 19" fill="none" xmlns="http://www.w3.org/2000/svg">
<rect width="71" height="19" rx="9.5" fill="#D8F9CD"/>
<path fill-rule="evenodd" clip-rule="evenodd" d="M16.7346 5.23516C16.8049 5.16493 16.9002 5.12549 16.9996 5.12549C17.099 5.12549 17.1943 5.16493 17.2646 5.23516L20.2646 8.23516C20.3014 8.26949 20.331 8.31089 20.3515 8.35689C20.372 8.40289 20.383 8.45255 20.3839 8.5029C20.3848 8.55325 20.3755 8.60326 20.3567 8.64996C20.3378 8.69665 20.3097 8.73907 20.2741 8.77468C20.2385 8.81029 20.1961 8.83836 20.1494 8.85722C20.1027 8.87608 20.0527 8.88534 20.0023 8.88445C19.952 8.88357 19.9023 8.87254 19.8563 8.85205C19.8103 8.83155 19.7689 8.802 19.7346 8.76516L17.3746 6.40516V13.5002C17.3746 13.5996 17.3351 13.695 17.2648 13.7653C17.1944 13.8356 17.099 13.8752 16.9996 13.8752C16.9001 13.8752 16.8048 13.8356 16.7344 13.7653C16.6641 13.695 16.6246 13.5996 16.6246 13.5002V6.40516L14.2646 8.76516C14.2303 8.802 14.1889 8.83155 14.1429 8.85205C14.0969 8.87254 14.0472 8.88357 13.9968 8.88445C13.9465 8.88534 13.8965 8.87608 13.8498 8.85722C13.8031 8.83836 13.7607 8.81029 13.7251 8.77468C13.6895 8.73907 13.6614 8.69665 13.6425 8.64996C13.6237 8.60326 13.6144 8.55325 13.6153 8.5029C13.6162 8.45255 13.6272 8.40289 13.6477 8.35689C13.6682 8.31089 13.6977 8.26949 13.7346 8.23516L16.7346 5.23516Z" fill="#2E621D"/>
<path d="M30.9716 5.27273V14H29.9148V6.38068H29.8636L27.733 7.79545V6.72159L29.9148 5.27273H30.9716ZM33.7159 14.0682C33.5057 14.0682 33.3253 13.9929 33.1747 13.8423C33.0241 13.6918 32.9489 13.5114 32.9489 13.3011C32.9489 13.0909 33.0241 12.9105 33.1747 12.7599C33.3253 12.6094 33.5057 12.5341 33.7159 12.5341C33.9261 12.5341 34.1065 12.6094 34.2571 12.7599C34.4077 12.9105 34.483 13.0909 34.483 13.3011C34.483 13.4403 34.4474 13.5682 34.3764 13.6847C34.3082 13.8011 34.2159 13.8949 34.0994 13.9659C33.9858 14.0341 33.858 14.0682 33.7159 14.0682ZM38.8125 14.1193C38.1705 14.1193 37.6236 13.9446 37.1719 13.5952C36.7202 13.2429 36.375 12.733 36.1364 12.0653C35.8977 11.3949 35.7784 10.5852 35.7784 9.63636C35.7784 8.69318 35.8977 7.88778 36.1364 7.22017C36.3778 6.54972 36.7244 6.03835 37.1761 5.68608C37.6307 5.33097 38.1761 5.15341 38.8125 5.15341C39.4489 5.15341 39.9929 5.33097 40.4446 5.68608C40.8991 6.03835 41.2457 6.54972 41.4844 7.22017C41.7259 7.88778 41.8466 8.69318 41.8466 9.63636C41.8466 10.5852 41.7273 11.3949 41.4886 12.0653C41.25 12.733 40.9048 13.2429 40.4531 13.5952C40.0014 13.9446 39.4545 14.1193 38.8125 14.1193ZM38.8125 13.1818C39.4489 13.1818 39.9432 12.875 40.2955 12.2614C40.6477 11.6477 40.8239 10.7727 40.8239 9.63636C40.8239 8.88068 40.7429 8.23722 40.581 7.70597C40.4219 7.17472 40.1918 6.76989 39.8906 6.49148C39.5923 6.21307 39.233 6.07386 38.8125 6.07386C38.1818 6.07386 37.6889 6.38494 37.3338 7.0071C36.9787 7.62642 36.8011 8.50284 36.8011 9.63636C36.8011 10.392 36.8807 11.0341 37.0398 11.5625C37.1989 12.0909 37.4276 12.4929 37.7259 12.7685C38.027 13.044 38.3892 13.1818 38.8125 13.1818ZM43.4659 14V13.233L46.3466 10.0795C46.6847 9.71023 46.9631 9.3892 47.1818 9.11648C47.4006 8.84091 47.5625 8.58239 47.6676 8.34091C47.7756 8.09659 47.8295 7.84091 47.8295 7.57386C47.8295 7.26705 47.7557 7.00142 47.608 6.77699C47.4631 6.55256 47.2642 6.37926 47.0114 6.2571C46.7585 6.13494 46.4744 6.07386 46.1591 6.07386C45.8239 6.07386 45.5312 6.14347 45.2812 6.28267C45.0341 6.41903 44.8423 6.6108 44.706 6.85795C44.5724 7.10511 44.5057 7.39489 44.5057 7.72727H43.5C43.5 7.21591 43.6179 6.76705 43.8537 6.38068C44.0895 5.99432 44.4105 5.69318 44.8168 5.47727C45.2259 5.26136 45.6847 5.15341 46.1932 5.15341C46.7045 5.15341 47.1577 5.26136 47.5526 5.47727C47.9474 5.69318 48.2571 5.98437 48.4815 6.35085C48.706 6.71733 48.8182 7.125 48.8182 7.57386C48.8182 7.89489 48.7599 8.20881 48.6435 8.51562C48.5298 8.8196 48.331 9.15909 48.0469 9.53409C47.7656 9.90625 47.375 10.3608 46.875 10.8977L44.9148 12.9943V13.0625H48.9716V14H43.4659ZM55.1804 12.3636V11.9034C55.1804 11.5852 55.2457 11.294 55.3764 11.0298C55.5099 10.7628 55.7031 10.5497 55.956 10.3906C56.2116 10.2287 56.5213 10.1477 56.8849 10.1477C57.2543 10.1477 57.5639 10.2287 57.8139 10.3906C58.0639 10.5497 58.2528 10.7628 58.3807 11.0298C58.5085 11.294 58.5724 11.5852 58.5724 11.9034V12.3636C58.5724 12.6818 58.5071 12.9744 58.3764 13.2415C58.2486 13.5057 58.0582 13.7187 57.8054 13.8807C57.5554 14.0398 57.2486 14.1193 56.8849 14.1193C56.5156 14.1193 56.2045 14.0398 55.9517 13.8807C55.6989 13.7187 55.5071 13.5057 55.3764 13.2415C55.2457 12.9744 55.1804 12.6818 55.1804 12.3636ZM56.0497 11.9034V12.3636C56.0497 12.6278 56.1122 12.8651 56.2372 13.0753C56.3622 13.2827 56.5781 13.3864 56.8849 13.3864C57.1832 13.3864 57.3935 13.2827 57.5156 13.0753C57.6406 12.8651 57.7031 12.6278 57.7031 12.3636V11.9034C57.7031 11.6392 57.6435 11.4034 57.5241 11.196C57.4048 10.9858 57.1918 10.8807 56.8849 10.8807C56.5866 10.8807 56.3722 10.9858 56.2415 11.196C56.1136 11.4034 56.0497 11.6392 56.0497 11.9034ZM50.8338 7.36932V6.90909C50.8338 6.59091 50.8991 6.29972 51.0298 6.03551C51.1634 5.76847 51.3565 5.5554 51.6094 5.39631C51.8651 5.23437 52.1747 5.15341 52.5384 5.15341C52.9077 5.15341 53.2173 5.23437 53.4673 5.39631C53.7173 5.5554 53.9063 5.76847 54.0341 6.03551C54.1619 6.29972 54.2259 6.59091 54.2259 6.90909V7.36932C54.2259 7.6875 54.1605 7.98011 54.0298 8.24716C53.902 8.51136 53.7116 8.72443 53.4588 8.88636C53.2088 9.04545 52.902 9.125 52.5384 9.125C52.169 9.125 51.858 9.04545 51.6051 8.88636C51.3523 8.72443 51.1605 8.51136 51.0298 8.24716C50.8991 7.98011 50.8338 7.6875 50.8338 7.36932ZM51.7031 6.90909V7.36932C51.7031 7.63352 51.7656 7.87074 51.8906 8.08097C52.0156 8.28835 52.2315 8.39205 52.5384 8.39205C52.8366 8.39205 53.0469 8.28835 53.169 8.08097C53.294 7.87074 53.3565 7.63352 53.3565 7.36932V6.90909C53.3565 6.64489 53.2969 6.40909 53.1776 6.2017C53.0582 5.99148 52.8452 5.88636 52.5384 5.88636C52.2401 5.88636 52.0256 5.99148 51.8949 6.2017C51.767 6.40909 51.7031 6.64489 51.7031 6.90909ZM51.1577 14L57.1577 5.27273H58.1293L52.1293 14H51.1577Z" fill="#2E621D"/>
</svg>
