<svg width="18" height="18" viewBox="0 0 18 18" fill="none" xmlns="http://www.w3.org/2000/svg">
<path fill-rule="evenodd" clip-rule="evenodd" d="M3.9375 3.44475V10.122C4.0185 10.0955 4.1035 10.0685 4.1925 10.041C4.76325 9.86775 5.5335 9.675 6.1875 9.675C7.251 9.675 8.2425 9.999 9.138 10.2907L9.17475 10.3028C10.1085 10.6073 10.9432 10.875 11.8125 10.875C12.5145 10.875 13.5045 10.605 14.0625 10.4303V3.80475C13.458 3.97875 12.5513 4.2 11.8125 4.2C10.749 4.2 9.7575 3.876 8.862 3.58425L8.82525 3.57225C7.8915 3.26775 7.0575 3 6.1875 3C5.6985 3 5.055 3.1335 4.5015 3.28125C4.28625 3.33825 4.09275 3.396 3.9375 3.44475ZM3.9375 11.3108C4.095 11.2545 4.29675 11.1855 4.52025 11.1173C5.073 10.9493 5.70975 10.8 6.1875 10.8C7.0575 10.8 7.8915 11.0677 8.82525 11.3722L8.862 11.3842C9.75675 11.6768 10.749 12 11.8125 12C12.7793 12 14.0453 11.6198 14.5485 11.4562C14.94 11.3302 15.1875 10.9665 15.1875 10.5735V3.56925C15.1875 2.91675 14.55 2.48325 13.956 2.66325C13.3702 2.841 12.4635 3.075 11.8125 3.075C10.9425 3.075 10.1085 2.80725 9.17475 2.50275L9.138 2.49075C8.24325 2.19825 7.251 1.875 6.1875 1.875C5.544 1.875 4.782 2.0415 4.21125 2.19375C3.8737 2.28459 3.53926 2.38665 3.2085 2.49975L3.19275 2.50575L3.18825 2.50725H3.18675L3.375 3.0375L3.186 2.508C3.07674 2.54698 2.98221 2.61878 2.91535 2.71357C2.84848 2.80836 2.81256 2.9215 2.8125 3.0375V15.5625C2.8125 15.7117 2.87176 15.8548 2.97725 15.9602C3.08274 16.0657 3.22582 16.125 3.375 16.125C3.52418 16.125 3.66726 16.0657 3.77275 15.9602C3.87824 15.8548 3.9375 15.7117 3.9375 15.5625V11.3108Z" fill="#04C811"/>
</svg>
