<svg width="18" height="19" viewBox="0 0 18 19" fill="none" xmlns="http://www.w3.org/2000/svg">
<path d="M10.7806 3.33936C12.0616 2.05761 14.1293 1.99011 15.3976 3.25836C16.6658 4.52661 16.5983 6.59436 15.3173 7.87536L12.3908 10.8019C12.3393 10.8571 12.2772 10.9014 12.2082 10.9322C12.1392 10.9629 12.0648 10.9795 11.9892 10.9808C11.9137 10.9821 11.8387 10.9682 11.7686 10.9399C11.6986 10.9117 11.635 10.8695 11.5816 10.8161C11.5282 10.7627 11.486 10.6991 11.4578 10.6291C11.4295 10.559 11.4156 10.484 11.4169 10.4085C11.4182 10.3329 11.4348 10.2585 11.4655 10.1895C11.4963 10.1205 11.5406 10.0584 11.5958 10.0069L14.5216 7.08036C15.3953 6.20661 15.3998 4.85211 14.6018 4.05411C13.8046 3.25611 12.4493 3.26061 11.5756 4.13436L8.64909 7.06086C8.54246 7.16022 8.40143 7.21431 8.2557 7.21174C8.10998 7.20917 7.97094 7.15013 7.86788 7.04707C7.76482 6.94401 7.70578 6.80497 7.70321 6.65925C7.70064 6.51352 7.75473 6.37249 7.85409 6.26586L10.7806 3.33936ZM11.6491 7.00686C11.7544 7.11233 11.8136 7.25529 11.8136 7.40436C11.8136 7.55342 11.7544 7.69639 11.6491 7.80186L7.14909 12.3019C7.04246 12.4012 6.90143 12.4553 6.7557 12.4527C6.60998 12.4502 6.47094 12.3911 6.36788 12.2881C6.26482 12.185 6.20578 12.046 6.20321 11.9002C6.20064 11.7545 6.25473 11.6135 6.35409 11.5069L10.8541 7.00686C10.9596 6.90152 11.1025 6.84235 11.2516 6.84235C11.4007 6.84235 11.5436 6.90152 11.6491 7.00686Z" fill="#666666"/>
<path d="M6.41624 9.30273C6.52187 9.1973 6.58128 9.05424 6.58142 8.90501C6.58156 8.75578 6.52242 8.6126 6.41699 8.50698C6.31157 8.40136 6.16851 8.34194 6.01927 8.3418C5.87004 8.34166 5.72686 8.4008 5.62124 8.50623L2.70299 11.417C1.42574 12.6905 1.30649 14.639 2.61299 16.0055C3.95024 17.4027 5.97074 17.189 7.22849 15.935L10.1475 13.0242C10.2531 12.9188 10.3125 12.7757 10.3127 12.6265C10.3128 12.4773 10.2537 12.3341 10.1482 12.2285C10.096 12.1762 10.0341 12.1347 9.96581 12.1063C9.89757 12.078 9.82441 12.0634 9.75052 12.0633C9.60129 12.0632 9.45812 12.1223 9.35249 12.2277L6.43499 15.137C5.54324 16.0265 4.25399 16.091 3.42749 15.227C3.37716 15.1751 3.32935 15.1207 3.28424 15.0642C2.57999 14.1852 2.67674 13.0317 3.49799 12.2127L6.41624 9.30273Z" fill="#666666"/>
</svg>
