<svg width="20" height="20" viewBox="0 0 20 20" fill="none" xmlns="http://www.w3.org/2000/svg">
<path d="M5.37182 7.47519C5.49805 6.33638 6.03985 5.28412 6.8935 4.51985C7.74716 3.75559 8.8527 3.33301 9.99849 3.33301C11.1443 3.33301 12.2498 3.75559 13.1035 4.51985C13.9571 5.28412 14.4989 6.33638 14.6252 7.47519L14.8352 9.36352L14.8402 9.41102C14.9477 10.3477 15.2528 11.2509 15.7352 12.061L15.7602 12.1027L16.241 12.9052C16.6785 13.6335 16.8968 13.9977 16.8493 14.2969C16.8179 14.4954 16.7158 14.676 16.5618 14.8052C16.3293 15.0002 15.9043 15.0002 15.0552 15.0002H4.94182C4.09182 15.0002 3.66682 15.0002 3.43515 14.806C3.28066 14.6767 3.17823 14.4959 3.14682 14.2969C3.10015 13.9977 3.31849 13.6335 3.75515 12.9052L4.23765 12.1019L4.26265 12.0602C4.74462 11.2503 5.04937 10.3474 5.15682 9.41102L5.16182 9.36352L5.37182 7.47519Z" stroke="#1F1F1F"/>
<path d="M7.58594 15.3389C7.72844 15.9589 8.0426 16.5072 8.47927 16.8972C8.91594 17.2889 9.45094 17.5005 10.0009 17.5005C10.5509 17.5005 11.0859 17.2889 11.5226 16.898C11.9593 16.5064 12.2726 15.9589 12.4159 15.3389" stroke="#1F1F1F" stroke-linecap="round"/>
</svg>
