<svg width="20" height="20" viewBox="0 0 20 20" fill="none" xmlns="http://www.w3.org/2000/svg">
<path d="M11.6071 4.28613C12.2702 4.28613 12.9061 4.54953 13.3749 5.01837C13.8438 5.48721 14.1071 6.12309 14.1071 6.78613V7.95078L16.8214 5.63292C17.0101 5.47186 17.2454 5.37548 17.4929 5.35792L17.575 5.3547C17.8715 5.35459 18.1569 5.46798 18.3725 5.67161C18.588 5.87523 18.7175 6.15364 18.7343 6.4497L18.7361 6.51542V13.5368C18.7361 13.7519 18.6764 13.9628 18.5635 14.1459C18.4507 14.329 18.2892 14.4771 18.0971 14.5738C17.905 14.6705 17.6898 14.7119 17.4755 14.6934C17.2612 14.6749 17.0563 14.5972 16.8836 14.469L16.8282 14.4251L14.1071 12.1372V13.2147C14.1071 13.8777 13.8438 14.5136 13.3749 14.9825C12.9061 15.4513 12.2702 15.7147 11.6071 15.7147H3.75C3.08696 15.7147 2.45107 15.4513 1.98223 14.9825C1.51339 14.5136 1.25 13.8777 1.25 13.2147V6.78613C1.25 6.12309 1.51339 5.48721 1.98223 5.01837C2.45107 4.54953 3.08696 4.28613 3.75 4.28613H11.6071ZM11.6071 5.35756H3.75C3.38349 5.35756 3.03099 5.49843 2.76542 5.75103C2.49986 6.00364 2.34154 6.34865 2.32321 6.7147L2.32143 6.78613V13.2147C2.32143 13.5812 2.4623 13.9337 2.7149 14.1993C2.9675 14.4648 3.31251 14.6232 3.67857 14.6415L3.75 14.6433H11.6071C11.9737 14.6433 12.3262 14.5024 12.5917 14.2498C12.8573 13.9972 13.0156 13.6522 13.0339 13.2861L13.0357 13.2147V6.78613C13.0357 6.41962 12.8948 6.06712 12.6422 5.80156C12.3896 5.53599 12.0446 5.37767 11.6786 5.35935L11.6071 5.35756ZM17.575 6.42613C17.561 6.42613 17.5472 6.42944 17.5346 6.43578L17.5171 6.44756L14.2489 9.23899L14.2357 9.25328C14.2284 9.26366 14.2229 9.27527 14.2196 9.28756L14.2175 9.30685V10.7883L14.2196 10.8079C14.223 10.8204 14.2286 10.8321 14.2361 10.8426L14.2493 10.8568L17.5179 13.6051L17.5379 13.6179C17.5499 13.6235 17.563 13.6263 17.5762 13.6261C17.5895 13.626 17.6025 13.6229 17.6144 13.617C17.6263 13.6112 17.6368 13.6029 17.645 13.5925C17.6533 13.5822 17.6591 13.5701 17.6621 13.5572L17.6646 13.5365V6.51542L17.6621 6.49506C17.6576 6.47548 17.6465 6.45801 17.6307 6.4455C17.615 6.43299 17.5951 6.42617 17.575 6.42613Z" fill="#1F1F1F"/>
</svg>
