<svg width="18" height="18" viewBox="0 0 18 18" fill="none" xmlns="http://www.w3.org/2000/svg">
<path d="M9 9V4.5M5.25 10.5V4.5M12.75 12V4.5M4.05 2.25H13.95C14.4274 2.25 14.8852 2.43964 15.2228 2.77721C15.5604 3.11477 15.75 3.57261 15.75 4.05V13.95C15.75 14.4274 15.5604 14.8852 15.2228 15.2228C14.8852 15.5604 14.4274 15.75 13.95 15.75H4.05C3.57261 15.75 3.11477 15.5604 2.77721 15.2228C2.43964 14.8852 2.25 14.4274 2.25 13.95V4.05C2.25 3.81362 2.29656 3.57956 2.38702 3.36117C2.47748 3.14278 2.61006 2.94435 2.77721 2.77721C3.11477 2.43964 3.57261 2.25 4.05 2.25Z" stroke="#666666" stroke-width="1.5" stroke-miterlimit="10" stroke-linecap="round" stroke-linejoin="round"/>
</svg>
