<svg width="18" height="18" viewBox="0 0 18 18" fill="none" xmlns="http://www.w3.org/2000/svg">
<path d="M6.0015 12H9.0015M6.0015 8.25H12.0015M5.628 2.625C4.461 2.66025 3.76575 2.79 3.28425 3.2715C2.625 3.9315 2.625 4.99275 2.625 7.116V11.9955C2.625 14.1195 2.625 15.1808 3.28425 15.8408C3.94275 16.5 5.004 16.5 7.125 16.5H10.875C12.9967 16.5 14.0573 16.5 14.7158 15.84C15.3758 15.1808 15.3757 14.1195 15.3757 11.9955V7.116C15.3757 4.9935 15.3758 3.9315 14.7158 3.2715C14.235 2.79 13.539 2.66025 12.372 2.625" stroke="#0C0C6E" stroke-width="1.5" stroke-linecap="round" stroke-linejoin="round"/>
<path d="M5.625 2.8125C5.625 2.088 6.213 1.5 6.9375 1.5H11.0625C11.4106 1.5 11.7444 1.63828 11.9906 1.88442C12.2367 2.13056 12.375 2.4644 12.375 2.8125C12.375 3.1606 12.2367 3.49444 11.9906 3.74058C11.7444 3.98672 11.4106 4.125 11.0625 4.125H6.9375C6.5894 4.125 6.25556 3.98672 6.00942 3.74058C5.76328 3.49444 5.625 3.1606 5.625 2.8125Z" stroke="#1616CA" stroke-width="1.5" stroke-linecap="round" stroke-linejoin="round"/>
</svg>
