<svg width="18" height="18" viewBox="0 0 18 18" fill="none" xmlns="http://www.w3.org/2000/svg">
<path d="M14.9156 9.39848L15.9326 10.3041C16.1204 10.4608 16.2459 10.6796 16.2863 10.9208C16.3268 11.1621 16.2795 11.4098 16.1531 11.6192L14.9268 13.714C14.8317 13.8743 14.6959 14.0067 14.5331 14.0976C14.3684 14.1887 14.1835 14.2371 13.9953 14.2382C13.8786 14.239 13.7625 14.2215 13.6511 14.1865L12.3495 13.7567C12.1215 13.903 11.8845 14.0339 11.6385 14.1494L11.3651 15.469C11.3145 15.7117 11.1793 15.9286 10.9837 16.081C10.7856 16.2361 10.54 16.3179 10.2885 16.3127H7.74933C7.4978 16.3179 7.25219 16.2361 7.05408 16.081C6.85887 15.9284 6.72413 15.7116 6.67383 15.469L6.39933 14.1494C6.15656 14.0323 5.92101 13.9008 5.69396 13.7556L4.38783 14.1865C4.27646 14.2215 4.16032 14.239 4.04358 14.2382C3.85578 14.2369 3.67129 14.1885 3.50696 14.0976C3.34433 14.007 3.2085 13.875 3.11321 13.7151L1.84308 11.6192C1.71104 11.4079 1.66059 11.1557 1.70118 10.9099C1.74177 10.6641 1.87062 10.4415 2.06358 10.2839L3.07946 9.00023V8.60198L2.06246 7.69636C1.87466 7.53964 1.74917 7.32086 1.70872 7.07962C1.66828 6.83838 1.71554 6.59064 1.84196 6.38123L3.11208 4.28648C3.20722 4.12613 3.34306 3.99379 3.50583 3.90286C3.67017 3.81193 3.85465 3.76358 4.04246 3.76223C4.15815 3.75494 4.27427 3.76556 4.38671 3.79373L5.66696 4.24373C5.89571 4.09748 6.13271 3.96661 6.37796 3.85111L6.65246 2.53148C6.70275 2.2889 6.8375 2.07203 7.03271 1.91948C7.23081 1.7644 7.47642 1.68253 7.72796 1.68773H10.2457C10.4972 1.68253 10.7429 1.7644 10.941 1.91948C11.1378 2.07361 11.2728 2.29073 11.3212 2.53148L11.5957 3.85111C11.8395 3.96736 12.0746 4.09861 12.3011 4.24486L13.6083 3.81511C13.7534 3.76791 13.9067 3.75134 14.0585 3.76645C14.2104 3.78155 14.3574 3.828 14.4903 3.90286C14.6535 3.99511 14.7885 4.12786 14.8841 4.28536L16.1531 6.38123C16.2869 6.59073 16.3399 6.84177 16.3022 7.08749C16.2646 7.33321 16.1388 7.55683 15.9483 7.71661L14.9156 8.59636V9.39848Z" stroke="#1F1F1F"/>
<path d="M11.8125 9C11.8125 9.74592 11.5162 10.4613 10.9887 10.9887C10.4613 11.5162 9.74592 11.8125 9 11.8125C8.25408 11.8125 7.53871 11.5162 7.01126 10.9887C6.48382 10.4613 6.1875 9.74592 6.1875 9C6.1875 8.25408 6.48382 7.53871 7.01126 7.01126C7.53871 6.48382 8.25408 6.1875 9 6.1875C9.74592 6.1875 10.4613 6.48382 10.9887 7.01126C11.5162 7.53871 11.8125 8.25408 11.8125 9Z" stroke="#1F1F1F"/>
</svg>
