<svg width="20" height="20" viewBox="0 0 20 20" fill="none" xmlns="http://www.w3.org/2000/svg">
<path d="M0 3.95833C0 3.15333 0.653333 2.5 1.45833 2.5H18.5417C19.3467 2.5 20 3.15333 20 3.95833V16.0417C20 16.4284 19.8464 16.7994 19.5729 17.0729C19.2994 17.3464 18.9284 17.5 18.5417 17.5H1.45833C1.07156 17.5 0.700626 17.3464 0.427136 17.0729C0.153645 16.7994 0 16.4284 0 16.0417L0 3.95833ZM1.45833 3.75C1.40308 3.75 1.35009 3.77195 1.31102 3.81102C1.27195 3.85009 1.25 3.90308 1.25 3.95833V16.0417C1.25 16.1567 1.34333 16.25 1.45833 16.25H18.5417C18.5969 16.25 18.6499 16.2281 18.689 16.189C18.7281 16.1499 18.75 16.0969 18.75 16.0417V3.95833C18.75 3.90308 18.7281 3.85009 18.689 3.81102C18.6499 3.77195 18.5969 3.75 18.5417 3.75H1.45833Z" fill="#1F1F1F"/>
<path d="M7.5 12.9865V7.01314C7.50012 6.9384 7.52035 6.86508 7.55855 6.80084C7.59676 6.73661 7.65153 6.68383 7.71714 6.64804C7.78276 6.61226 7.85678 6.59478 7.93147 6.59743C8.00616 6.60009 8.07876 6.62278 8.14167 6.66314L12.7883 9.64897C12.8472 9.68667 12.8956 9.73856 12.9291 9.79987C12.9626 9.86118 12.9802 9.92993 12.9802 9.99981C12.9802 10.0697 12.9626 10.1384 12.9291 10.1997C12.8956 10.2611 12.8472 10.3129 12.7883 10.3506L8.14167 13.3373C8.07876 13.3777 8.00616 13.4004 7.93147 13.403C7.85678 13.4057 7.78276 13.3882 7.71714 13.3524C7.65153 13.3166 7.59676 13.2638 7.55855 13.1996C7.52035 13.1354 7.50012 13.062 7.5 12.9873V12.9865Z" fill="#1F1F1F"/>
</svg>
