<svg width="20" height="20" viewBox="0 0 20 20" fill="none" xmlns="http://www.w3.org/2000/svg">
<path d="M4.353 4.33363C4.44358 4.24572 4.56537 4.1974 4.69158 4.19927C4.81778 4.20115 4.93808 4.25307 5.026 4.34363C5.12166 4.44413 5.17409 4.57814 5.17203 4.71687C5.16998 4.85561 5.1136 4.988 5.015 5.08563C3.72205 6.39411 2.99791 8.1601 3 9.99963C3 11.9896 3.83 13.7856 5.164 15.0596C5.21528 15.1074 5.25657 15.1648 5.28551 15.2286C5.31445 15.2924 5.33045 15.3613 5.33258 15.4313C5.33472 15.5014 5.32296 15.5711 5.29797 15.6366C5.27298 15.702 5.23527 15.7618 5.187 15.8126C5.10098 15.9015 4.98369 15.9533 4.86007 15.957C4.73644 15.9608 4.61624 15.9161 4.525 15.8326C3.72698 15.0852 3.09106 14.1818 2.6567 13.1784C2.22235 12.175 1.99882 11.093 2 9.99963C2 7.78563 2.9 5.78163 4.353 4.33363ZM14.985 5.08563C14.8865 4.98787 14.8304 4.8554 14.8285 4.71667C14.8266 4.57794 14.8792 4.444 14.975 4.34363C15.0629 4.25338 15.183 4.20164 15.3089 4.19977C15.4349 4.1979 15.5565 4.24603 15.647 4.33363C16.3936 5.07611 16.9859 5.95902 17.3898 6.93146C17.7936 7.90391 18.001 8.94666 18 9.99963C18 12.2996 17.03 14.3736 15.475 15.8326C15.3838 15.9161 15.2636 15.9608 15.1399 15.957C15.0163 15.9533 14.899 15.9015 14.813 15.8126C14.7649 15.7619 14.7273 15.7021 14.7024 15.6367C14.6775 15.5714 14.6658 15.5017 14.6679 15.4318C14.6701 15.3619 14.686 15.2931 14.7149 15.2294C14.7437 15.1657 14.7849 15.1084 14.836 15.0606C15.5209 14.4078 16.0659 13.6225 16.4379 12.7524C16.8099 11.8824 17.0012 10.9458 17 9.99963C17.0024 8.15976 16.2782 6.39436 14.985 5.08563ZM6.132 6.08963C6.22112 6.00476 6.34029 5.95876 6.46332 5.96177C6.58634 5.96477 6.70314 6.01651 6.788 6.10563C6.99601 6.31363 6.975 6.65563 6.77 6.86563C5.95533 7.70546 5.4998 8.82958 5.5 9.99963C5.5 11.2896 6.043 12.4536 6.914 13.2746C7.134 13.4816 7.164 13.8356 6.949 14.0506C6.86659 14.1363 6.75438 14.187 6.6356 14.1922C6.51683 14.1974 6.40061 14.1568 6.311 14.0786C5.74085 13.563 5.28511 12.9336 4.97318 12.2311C4.66125 11.5285 4.50006 10.7683 4.5 9.99963C4.4989 9.2722 4.64264 8.55183 4.92284 7.88052C5.20304 7.20922 5.61408 6.60042 6.132 6.08963ZM13.23 6.86563C13.025 6.65563 13.004 6.31363 13.212 6.10563C13.2969 6.01651 13.4137 5.96477 13.5367 5.96177C13.6597 5.95876 13.7789 6.00476 13.868 6.08963C14.3859 6.60042 14.797 7.20922 15.0772 7.88052C15.3574 8.55183 15.5011 9.2722 15.5 9.99963C15.5002 10.7684 15.3393 11.5287 15.0275 12.2315C14.7157 12.9342 14.2601 13.5638 13.69 14.0796C13.6 14.1581 13.4832 14.1988 13.364 14.1932C13.2447 14.1876 13.1322 14.1362 13.05 14.0496C12.836 13.8356 12.866 13.4816 13.086 13.2746C13.5325 12.8539 13.8882 12.3464 14.1314 11.7832C14.3745 11.22 14.5 10.6131 14.5 9.99963C14.5002 8.82958 14.0447 7.70546 13.23 6.86563ZM10 8.74963C9.66848 8.74963 9.35054 8.88132 9.11612 9.11574C8.8817 9.35016 8.75 9.66811 8.75 9.99963C8.75 10.3311 8.8817 10.6491 9.11612 10.8835C9.35054 11.1179 9.66848 11.2496 10 11.2496C10.3315 11.2496 10.6495 11.1179 10.8839 10.8835C11.1183 10.6491 11.25 10.3311 11.25 9.99963C11.25 9.66811 11.1183 9.35016 10.8839 9.11574C10.6495 8.88132 10.3315 8.74963 10 8.74963Z" fill="#1F1F1F"/>
</svg>
