<svg width="20" height="20" viewBox="0 0 20 20" fill="none" xmlns="http://www.w3.org/2000/svg">
<g clip-path="url(#clip0_2458_8451)">
<path d="M14.2824 0.713867H2.13951C1.76063 0.713867 1.39727 0.864377 1.12936 1.13229C0.861447 1.4002 0.710938 1.76356 0.710938 2.14244V14.2853C0.710938 14.6642 0.861447 15.0275 1.12936 15.2954C1.39727 15.5634 1.76063 15.7139 2.13951 15.7139H14.2824C14.6612 15.7139 15.0246 15.5634 15.2925 15.2954C15.5604 15.0275 15.7109 14.6642 15.7109 14.2853V2.14244C15.7109 1.76356 15.5604 1.4002 15.2925 1.13229C15.0246 0.864377 14.6612 0.713867 14.2824 0.713867Z" stroke="#1F1F1F" stroke-linecap="round" stroke-linejoin="round"/>
<path d="M19.2857 4.99922V17.8564C19.2857 18.2352 19.1352 18.5986 18.8673 18.8665C18.5994 19.1344 18.236 19.2849 17.8571 19.2849H5M5.35714 10.9135V5.5135C5.35606 5.4213 5.37978 5.33051 5.42583 5.25062C5.47187 5.17074 5.53855 5.1047 5.61887 5.05943C5.6992 5.01415 5.79022 4.99131 5.8824 4.99328C5.97459 4.99526 6.06454 5.02198 6.14286 5.07065L10.8143 7.77065C10.8913 7.81611 10.9551 7.88087 10.9994 7.95853C11.0438 8.0362 11.0671 8.12408 11.0671 8.2135C11.0671 8.30293 11.0438 8.39081 10.9994 8.46847C10.9551 8.54614 10.8913 8.6109 10.8143 8.65636L6.14286 11.4278C6.05931 11.4815 5.96201 11.5098 5.8627 11.5094C5.7634 11.5089 5.66635 11.4798 5.58326 11.4254C5.50018 11.371 5.43461 11.2937 5.39449 11.2029C5.35436 11.1121 5.34139 11.0115 5.35714 10.9135Z" stroke="#1F1F1F" stroke-linecap="round" stroke-linejoin="round"/>
</g>
<defs>
<clipPath id="clip0_2458_8451">
<rect width="20" height="20" fill="white"/>
</clipPath>
</defs>
</svg>
