<svg width="24" height="24" viewBox="0 0 24 24" fill="none" xmlns="http://www.w3.org/2000/svg">
<path d="M9.53621 3.91C9.53621 2.855 10.4862 2 11.6602 2C12.8332 2 13.7842 2.855 13.7842 3.91C13.7842 4.405 13.6042 4.857 13.2922 5.197C12.6952 5.847 11.8022 6.502 11.8022 7.345V7.63M11.8022 7.63C12.5419 7.61824 13.2678 7.83092 13.8842 8.24L21.3172 13.25C22.6232 14.132 21.9302 16 20.2972 16H18.0002M11.8022 7.63C11.0688 7.63476 10.3539 7.86097 9.75121 8.279L2.65521 13.27C1.38321 14.165 2.08721 16 3.70321 16H6.00021" stroke="#1F1F1F" stroke-linecap="round"/>
<path d="M6 18C6 16.114 6 15.172 6.586 14.586C7.172 14 8.114 14 10 14H14C15.886 14 16.828 14 17.414 14.586C18 15.172 18 16.114 18 18C18 19.886 18 20.828 17.414 21.414C16.828 22 15.886 22 14 22H10C8.114 22 7.172 22 6.586 21.414C6 20.828 6 19.886 6 18Z" stroke="#1F1F1F"/>
</svg>
