<svg width="18" height="18" viewBox="0 0 18 18" fill="none" xmlns="http://www.w3.org/2000/svg">
<path d="M9.021 12.9225C9.187 12.9225 9.327 12.8655 9.441 12.7515C9.555 12.6375 9.612 12.4975 9.612 12.3315C9.612 12.1655 9.5545 12.0255 9.4395 11.9115C9.3255 11.7975 9.1855 11.7405 9.0195 11.7405C8.8535 11.7405 8.7135 11.7978 8.5995 11.9123C8.4855 12.0268 8.42875 12.1668 8.42925 12.3323C8.42925 12.4983 8.48625 12.6383 8.60025 12.7523C8.71525 12.8663 8.8555 12.9233 9.021 12.9233M9.00225 15.75C8.06925 15.75 7.19175 15.573 6.36975 15.219C5.54825 14.8645 4.8335 14.3835 4.2255 13.776C3.6175 13.1685 3.13625 12.4545 2.78175 11.634C2.42725 10.8135 2.25 9.93625 2.25 9.00225C2.25 8.06825 2.42725 7.19075 2.78175 6.36975C3.13575 5.54825 3.616 4.8335 4.2225 4.2255C4.829 3.6175 5.54325 3.13625 6.36525 2.78175C7.18725 2.42725 8.06475 2.25 8.99775 2.25C9.93075 2.25 10.8083 2.42725 11.6302 2.78175C12.4517 3.13575 13.1665 3.61625 13.7745 4.22325C14.3825 4.83025 14.8638 5.5445 15.2183 6.366C15.5728 7.1875 15.75 8.06475 15.75 8.99775C15.75 9.93075 15.573 10.8083 15.219 11.6302C14.865 12.4522 14.384 13.167 13.776 13.7745C13.168 14.382 12.454 14.8633 11.634 15.2183C10.814 15.5733 9.93675 15.7505 9.00225 15.75ZM9 15C10.675 15 12.0937 14.4187 13.2562 13.2562C14.4187 12.0937 15 10.675 15 9C15 7.325 14.4187 5.90625 13.2562 4.74375C12.0937 3.58125 10.675 3 9 3C7.325 3 5.90625 3.58125 4.74375 4.74375C3.58125 5.90625 3 7.325 3 9C3 10.675 3.58125 12.0937 4.74375 13.2562C5.90625 14.4187 7.325 15 9 15ZM9.0465 5.80425C9.4265 5.80425 9.7535 5.922 10.0275 6.1575C10.3025 6.393 10.44 6.68775 10.44 7.04175C10.44 7.31675 10.3625 7.56525 10.2075 7.78725C10.0535 8.00925 9.875 8.214 9.672 8.4015C9.415 8.6345 9.18875 8.89075 8.99325 9.17025C8.79775 9.45025 8.6855 9.7585 8.6565 10.095C8.647 10.193 8.67775 10.275 8.74875 10.341C8.81875 10.4065 8.90125 10.4392 8.99625 10.4392C9.09675 10.4392 9.1815 10.4057 9.2505 10.3387C9.319 10.2712 9.3625 10.1918 9.381 10.1003C9.431 9.84775 9.5315 9.623 9.6825 9.426C9.833 9.2295 9.9985 9.0435 10.179 8.868C10.4385 8.61 10.6688 8.32875 10.8698 8.02425C11.0713 7.72025 11.172 7.381 11.172 7.0065C11.172 6.456 10.963 6.0015 10.545 5.643C10.1275 5.285 9.6375 5.106 9.075 5.106C8.658 5.106 8.26975 5.2035 7.91025 5.3985C7.55125 5.5935 7.264 5.8635 7.0485 6.2085C6.9995 6.2915 6.98375 6.37725 7.00125 6.46575C7.01875 6.55425 7.06625 6.6215 7.14375 6.6675C7.24275 6.7195 7.34275 6.7315 7.44375 6.7035C7.54475 6.6755 7.63375 6.6175 7.71075 6.5295C7.87725 6.3225 8.07325 6.15 8.29875 6.012C8.52375 5.873 8.773 5.80425 9.0465 5.80425Z" fill="black"/>
</svg>
