<svg width="20" height="20" viewBox="0 0 20 20" fill="none" xmlns="http://www.w3.org/2000/svg">
<path d="M16.1333 5.38007L7.04132 8.00007H16.5013C16.6339 8.00007 16.7611 8.05275 16.8549 8.14652C16.9486 8.24029 17.0013 8.36747 17.0013 8.50007V15.5001C17.0013 16.1631 16.7379 16.799 16.2691 17.2678C15.8003 17.7367 15.1644 18.0001 14.5013 18.0001H5.50132C4.83863 17.9995 4.20326 17.7359 3.73485 17.2671C3.26644 16.7984 3.00332 16.1628 3.00332 15.5001V8.57107L2.74632 7.67807C2.65534 7.36257 2.6274 7.03224 2.6641 6.70594C2.7008 6.37964 2.80142 6.06377 2.96022 5.77636C3.11901 5.48895 3.33287 5.23564 3.58957 5.0309C3.84628 4.82615 4.1408 4.67398 4.45632 4.58307L13.1033 2.09007C13.4188 1.99909 13.7492 1.97115 14.0755 2.00785C14.4018 2.04455 14.7176 2.14517 15.005 2.30397C15.2924 2.46276 15.5458 2.67662 15.7505 2.93332C15.9552 3.19003 16.1074 3.48455 16.1983 3.80007L16.4753 4.76007C16.4937 4.82324 16.4994 4.8894 16.4921 4.95478C16.4848 5.02015 16.4647 5.08345 16.433 5.14104C16.4012 5.19864 16.3584 5.2494 16.307 5.29041C16.2555 5.33143 16.1965 5.3619 16.1333 5.38007ZM3.84332 7.88007L4.45032 7.70507L5.89232 5.21007L4.73232 5.54507C4.35044 5.65525 4.02789 5.91249 3.83552 6.26029C3.64315 6.6081 3.59668 7.01804 3.70632 7.40007L3.84332 7.88007ZM5.83532 7.30607L7.95532 6.69407L9.39832 4.19707L7.27332 4.81007L7.25232 4.85207L5.83532 7.30607ZM11.4623 5.68407L12.9043 3.18607L10.7783 3.79907L10.7523 3.85207L9.34232 6.29507L11.4623 5.68407ZM14.1463 3.03207L14.1263 3.06807L12.8473 5.28407L15.3743 4.55607L15.2353 4.07607C15.1621 3.82125 15.0227 3.59039 14.8312 3.40699C14.6397 3.2236 14.4041 3.09424 14.1463 3.03207ZM4.00332 9.00007V15.5001C4.00332 15.8979 4.16136 16.2794 4.44266 16.5607C4.72397 16.842 5.1055 17.0001 5.50332 17.0001H14.5033C14.9011 17.0001 15.2827 16.842 15.564 16.5607C15.8453 16.2794 16.0033 15.8979 16.0033 15.5001V9.00007H4.00332Z" fill="#1F1F1F"/>
</svg>
