<svg width="20" height="20" viewBox="0 0 20 20" fill="none" xmlns="http://www.w3.org/2000/svg">
<path d="M15.4141 4.16699H16.4158C17.4166 4.16699 17.9166 4.16699 18.1783 4.48116C18.4391 4.79616 18.3308 5.26783 18.1133 6.21199L17.7883 7.62866C17.2975 9.75699 15.5058 11.3403 13.3308 11.667M4.58081 4.16699H3.57915C2.57831 4.16699 2.07748 4.16699 1.81665 4.48116C1.55581 4.79616 1.66415 5.26783 1.88165 6.21199L2.20665 7.62866C2.69748 9.75699 4.48915 11.3403 6.66415 11.667M9.99748 14.167C8.60248 14.167 7.38915 15.2212 6.76248 16.7762C6.46248 17.5195 6.89248 18.3337 7.46248 18.3337H12.5316C13.1025 18.3337 13.5316 17.5195 13.2325 16.7762C12.6058 15.2212 11.3925 14.167 9.99748 14.167Z" stroke="#1F1F1F" stroke-linecap="round" stroke-linejoin="round"/>
<path d="M9.99442 14.167C12.5111 14.167 14.6319 10.282 15.2694 4.99199C15.4453 3.53033 15.5336 2.79866 15.0669 2.23283C14.6003 1.66699 13.8461 1.66699 12.3386 1.66699H7.65025C6.14192 1.66699 5.38859 1.66699 4.92192 2.23283C4.45525 2.79866 4.54442 3.53033 4.71942 4.99283C5.35692 10.282 7.47775 14.167 9.99442 14.167Z" stroke="#1F1F1F" stroke-linecap="round" stroke-linejoin="round"/>
</svg>
