<svg width="20" height="20" viewBox="0 0 20 20" fill="none" xmlns="http://www.w3.org/2000/svg">
<path d="M3.4326 17.0836C3.06205 17.0836 2.7451 16.9517 2.48177 16.6878C2.21844 16.4239 2.08649 16.1072 2.08594 15.7378V3.50944L3.0651 4.48861L4.4401 3.09277L5.83594 4.48944L7.23177 3.09361L8.60677 4.48944L10.0026 3.09361L11.3984 4.48944L12.7734 3.09361L14.1693 4.48944L15.5651 3.09361L16.9401 4.48944L17.9193 3.51027V15.7378C17.9193 16.1078 17.7876 16.4244 17.5243 16.6878C17.2609 16.9511 16.944 17.0831 16.5734 17.0836H3.4326ZM3.4326 16.2503H9.58594V10.4169H2.91927V15.7378C2.91927 15.8872 2.96733 16.01 3.06344 16.1061C3.15955 16.2022 3.2826 16.2503 3.4326 16.2503ZM10.4193 16.2503H16.5734C16.7229 16.2503 16.8457 16.2022 16.9418 16.1061C17.0379 16.01 17.0859 15.8872 17.0859 15.7378V13.7503H10.4193V16.2503ZM10.4193 12.9169H17.0859V10.4169H10.4193V12.9169ZM2.91927 9.58361H17.0859V6.09027H2.91927V9.58361Z" fill="#1F1F1F"/>
</svg>
