<svg width="20" height="20" viewBox="0 0 20 20" fill="none" xmlns="http://www.w3.org/2000/svg">
<path d="M6.875 14.99V4.3875L16.875 3.125V12.94M6.99625 7.315L17.1575 5.865M6.875 14.9962C6.875 15.4935 6.67746 15.9704 6.32583 16.3221C5.97419 16.6737 5.49728 16.8712 5 16.8712C4.50272 16.8712 4.02581 16.6737 3.67417 16.3221C3.32254 15.9704 3.125 15.4935 3.125 14.9962C3.125 14.499 3.32254 14.0221 3.67417 13.6704C4.02581 13.3188 4.50272 13.1212 5 13.1212C5.49728 13.1212 5.97419 13.3188 6.32583 13.6704C6.67746 14.0221 6.875 14.499 6.875 14.9962ZM16.875 13.06C16.875 13.5573 16.6775 14.0342 16.3258 14.3858C15.9742 14.7375 15.4973 14.935 15 14.935C14.5027 14.935 14.0258 14.7375 13.6742 14.3858C13.3225 14.0342 13.125 13.5573 13.125 13.06C13.125 12.5627 13.3225 12.0858 13.6742 11.7342C14.0258 11.3825 14.5027 11.185 15 11.185C15.4973 11.185 15.9742 11.3825 16.3258 11.7342C16.6775 12.0858 16.875 12.5627 16.875 13.06Z" stroke="#1F1F1F"/>
</svg>
