<svg width="18" height="18" viewBox="0 0 18 18" fill="none" xmlns="http://www.w3.org/2000/svg">
<path d="M9 10.8173C9.1355 10.8173 9.24625 10.7743 9.33225 10.6883C9.41875 10.6023 9.462 10.4915 9.462 10.356C9.462 10.22 9.41875 10.109 9.33225 10.023C9.24625 9.937 9.1355 9.894 9 9.894C8.8645 9.894 8.75375 9.937 8.66775 10.023C8.58175 10.109 8.5385 10.22 8.538 10.356C8.5375 10.492 8.58075 10.6028 8.66775 10.6883C8.75475 10.7738 8.8655 10.8168 9 10.8173ZM8.625 8.5965H9.375V4.03875H8.625V8.5965ZM2.25 15.0577V3.462C2.25 3.1165 2.36575 2.82825 2.59725 2.59725C2.82875 2.36625 3.11675 2.2505 3.46125 2.25H14.5388C14.8838 2.25 15.1718 2.36575 15.4028 2.59725C15.6338 2.82875 15.7495 3.117 15.75 3.462V11.5388C15.75 11.8838 15.6343 12.172 15.4028 12.4035C15.1713 12.635 14.8833 12.7505 14.5388 12.75H4.55775L2.25 15.0577ZM4.2375 12H14.5388C14.6538 12 14.7595 11.952 14.856 11.856C14.9525 11.76 15.0005 11.6543 15 11.5388V3.46125C15 3.34625 14.952 3.2405 14.856 3.144C14.76 3.0475 14.6543 2.9995 14.5388 3H3.46125C3.34625 3 3.2405 3.048 3.144 3.144C3.0475 3.24 2.9995 3.34575 3 3.46125V13.2338L4.2375 12Z" fill="#1F1F1F"/>
</svg>
