<svg width="20" height="20" viewBox="0 0 20 20" fill="none" xmlns="http://www.w3.org/2000/svg">
<path d="M6.8734 15H13.1234V16.25H6.8734V15ZM8.1234 17.5H11.8734V18.75H8.1234V17.5ZM9.9984 1.25C8.34079 1.25 6.75108 1.90848 5.57898 3.08058C4.40688 4.25269 3.7484 5.8424 3.7484 7.5C3.70613 8.40834 3.88013 9.31373 4.25608 10.1417C4.63203 10.9696 5.19919 11.6965 5.9109 12.2625C6.5359 12.8438 6.8734 13.175 6.8734 13.75H8.1234C8.1234 12.6 7.42965 11.9562 6.75465 11.3375C6.1705 10.8902 5.70494 10.3064 5.39876 9.6374C5.09258 8.96838 4.95511 8.23448 4.9984 7.5C4.9984 6.17392 5.52518 4.90215 6.46286 3.96447C7.40054 3.02678 8.67231 2.5 9.9984 2.5C11.3245 2.5 12.5962 3.02678 13.5339 3.96447C14.4716 4.90215 14.9984 6.17392 14.9984 7.5C15.041 8.23503 14.9025 8.96927 14.5952 9.63833C14.288 10.3074 13.8212 10.8908 13.2359 11.3375C12.5671 11.9625 11.8734 12.5875 11.8734 13.75H13.1234C13.1234 13.175 13.4546 12.8438 14.0859 12.2563C14.7971 11.6912 15.364 10.9654 15.74 10.1386C16.1159 9.31169 16.2902 8.40737 16.2484 7.5C16.2484 6.67924 16.0867 5.86651 15.7726 5.10823C15.4586 4.34994 14.9982 3.66095 14.4178 3.08058C13.8374 2.50022 13.1485 2.03984 12.3902 1.72575C11.6319 1.41166 10.8192 1.25 9.9984 1.25Z" fill="#1F1F1F"/>
</svg>
