<svg width="20" height="20" viewBox="0 0 20 20" fill="none" xmlns="http://www.w3.org/2000/svg">
<path d="M13.7482 8.59375H11.8732C11.7489 8.59375 11.6297 8.54436 11.5418 8.45646C11.4539 8.36855 11.4045 8.24932 11.4045 8.125C11.4045 8.00068 11.4539 7.88145 11.5418 7.79354C11.6297 7.70564 11.7489 7.65625 11.8732 7.65625H13.7482C13.8726 7.65625 13.9918 7.70564 14.0797 7.79354C14.1676 7.88145 14.217 8.00068 14.217 8.125C14.217 8.24932 14.1676 8.36855 14.0797 8.45646C13.9918 8.54436 13.8726 8.59375 13.7482 8.59375ZM8.12325 7.65625H7.342V6.875C7.342 6.75068 7.29261 6.63145 7.20471 6.54354C7.1168 6.45564 6.99757 6.40625 6.87325 6.40625C6.74893 6.40625 6.6297 6.45564 6.54179 6.54354C6.45389 6.63145 6.4045 6.75068 6.4045 6.875V7.65625H5.62325C5.49893 7.65625 5.3797 7.70564 5.29179 7.79354C5.20389 7.88145 5.1545 8.00068 5.1545 8.125C5.1545 8.24932 5.20389 8.36855 5.29179 8.45646C5.3797 8.54436 5.49893 8.59375 5.62325 8.59375H6.4045V9.375C6.4045 9.49932 6.45389 9.61855 6.54179 9.70646C6.6297 9.79436 6.74893 9.84375 6.87325 9.84375C6.99757 9.84375 7.1168 9.79436 7.20471 9.70646C7.29261 9.61855 7.342 9.49932 7.342 9.375V8.59375H8.12325C8.24757 8.59375 8.3668 8.54436 8.45471 8.45646C8.54261 8.36855 8.592 8.24932 8.592 8.125C8.592 8.00068 8.54261 7.88145 8.45471 7.79354C8.3668 7.70564 8.24757 7.65625 8.12325 7.65625ZM18.7357 15.5859C18.4909 15.9356 18.1654 16.2212 17.7868 16.4184C17.4082 16.6156 16.9876 16.7186 16.5607 16.7188C15.8577 16.7172 15.1837 16.4378 14.6857 15.9414L14.6654 15.9195L11.5123 12.3438H8.48419L5.33497 15.9187L5.31075 15.9375C4.81394 16.436 4.13957 16.717 3.43575 16.7188C3.04798 16.7185 2.66497 16.6333 2.31362 16.4693C1.96227 16.3052 1.65111 16.0662 1.40198 15.7691C1.15285 15.4719 0.971804 15.1238 0.871555 14.7492C0.771305 14.3746 0.754283 13.9826 0.821687 13.6008C0.821687 13.6008 0.821687 13.5961 0.821687 13.593L2.09981 7.02187C2.2837 5.9744 2.83085 5.02524 3.64511 4.34114C4.45937 3.65704 5.48866 3.28176 6.55216 3.28125H13.4357C14.4965 3.2826 15.5232 3.6556 16.3375 4.33541C17.1518 5.01523 17.7021 5.95888 17.8928 7.00234V7.01719L19.1748 13.5938V13.6023C19.2364 13.9456 19.2294 14.2976 19.154 14.6381C19.0786 14.9786 18.9365 15.3008 18.7357 15.5859ZM13.4357 11.4062C14.3889 11.4062 15.303 11.0276 15.9769 10.3537C16.6509 9.67971 17.0295 8.76562 17.0295 7.8125C17.0295 6.85938 16.6509 5.94529 15.9769 5.27134C15.303 4.59738 14.3889 4.21875 13.4357 4.21875H6.55216C5.7086 4.21939 4.89228 4.5174 4.24671 5.06038C3.60114 5.60335 3.16765 6.35653 3.02247 7.1875C3.02214 7.19009 3.02214 7.19272 3.02247 7.19531L1.74278 13.768C1.68032 14.1267 1.73337 14.4959 1.89429 14.8225C2.05521 15.1491 2.31569 15.4162 2.63817 15.5852C2.96065 15.7542 3.32847 15.8164 3.6886 15.7629C4.04874 15.7094 4.38258 15.543 4.642 15.2875L7.92325 11.5648C7.96746 11.5154 8.02166 11.4759 8.08226 11.449C8.14287 11.4221 8.20849 11.4083 8.27481 11.4086L13.4357 11.4062ZM18.2537 13.768L17.4889 9.83437C17.1127 10.5876 16.5344 11.2213 15.8185 11.6644C15.1027 12.1076 14.2777 12.3428 13.4357 12.3438H12.7615L15.3545 15.2875C15.6139 15.543 15.9478 15.7094 16.3079 15.7629C16.668 15.8164 17.0359 15.7542 17.3583 15.5852C17.6808 15.4162 17.9413 15.1491 18.1022 14.8225C18.2631 14.4959 18.3162 14.1267 18.2537 13.768Z" fill="#1F1F1F"/>
</svg>
