<svg width="24" height="24" viewBox="0 0 24 24" fill="none" xmlns="http://www.w3.org/2000/svg">
<path d="M18.2638 2.73642C17.5218 2.72142 5.58183 4.26142 4.13683 4.80342C3.05783 5.20642 2.21183 5.72542 1.54683 6.39342C0.465834 7.47942 0.257834 8.53742 0.429834 10.3954C0.585834 12.0774 1.35983 17.6624 1.74583 18.8164C2.17283 20.0934 2.95883 21.0734 4.25383 21.2134C8.20583 21.6454 9.13883 19.4354 18.3278 19.4554C21.1118 19.4624 22.4948 18.2254 23.0718 17.1464C23.7458 15.8794 23.6158 14.2104 23.6048 13.3284C23.5898 12.1714 22.9348 6.69542 22.6188 5.84442C22.4148 5.29442 21.9848 4.29142 21.1858 3.68042C20.1628 2.89842 19.3268 2.75842 18.2638 2.73642ZM9.54383 8.71342C9.71383 8.70442 9.94183 8.77942 10.0338 8.80942C10.7468 9.03842 14.3238 10.3074 15.4368 10.8774C15.4702 10.8941 15.5055 10.9098 15.5428 10.9244C15.7018 10.9914 15.9198 11.0844 15.9228 11.3554C15.9258 11.6134 15.7308 11.7324 15.5738 11.8284L15.4858 11.8834C15.2552 12.0408 15.0252 12.1988 14.7958 12.3574C14.2648 12.7274 11.1678 14.8694 11.1678 14.8694C10.9038 15.0724 10.4078 15.3914 10.2178 15.2914C10.0298 15.1884 9.96483 14.4964 9.91983 14.1614L9.90783 14.0864C9.85183 13.6824 9.40683 9.83742 9.35483 9.41442C9.33983 9.29442 9.26683 8.85442 9.40183 8.75442C9.44449 8.72712 9.49419 8.71287 9.54483 8.71342M17.9668 3.15942H17.9768C18.9938 3.17942 19.7898 3.31642 20.7648 4.06042C21.5288 4.64342 21.9408 5.59942 22.1338 6.12542C22.4338 6.93742 23.0598 12.1644 23.0748 13.2684C23.0848 14.1084 23.2098 15.7014 22.5648 16.9104C22.0178 17.9364 20.7008 19.1124 18.0588 19.1124H17.9188C10.0388 19.1124 8.58883 20.8414 5.55783 20.8414C5.26117 20.8414 4.94583 20.8241 4.61183 20.7894C3.37683 20.6534 2.62783 19.7194 2.22083 18.5014C1.85183 17.3994 1.11383 12.0724 0.963834 10.4664C0.798834 8.69442 0.998834 7.68642 2.02983 6.64942C2.66283 6.01142 3.47083 5.51642 4.50283 5.13242C5.87083 4.61742 17.1628 3.15942 17.9668 3.15942ZM17.9668 2.23242C17.4568 2.23242 14.1188 2.64642 11.3248 3.03242C8.52783 3.41942 5.02183 3.94742 4.18483 4.25942C3.03183 4.69142 2.11483 5.25642 1.38883 5.98742C0.0498341 7.33242 -0.113166 8.73142 0.053834 10.5534C0.183834 11.9654 0.928834 17.5284 1.35583 18.8004C1.92983 20.5184 3.04983 21.5504 4.50983 21.7104C4.86983 21.7494 5.21383 21.7684 5.55483 21.7684C6.83483 21.7684 7.84983 21.4914 9.02483 21.1714C10.8728 20.6664 13.1718 20.0404 17.9178 20.0404H18.0578C19.2198 20.0404 22.0658 19.7784 23.3608 17.3534C24.0538 16.0574 24.0128 14.4834 23.9898 13.5434L23.9828 13.2554C23.9678 12.1334 23.3378 6.76042 22.9838 5.79842C22.5738 4.68742 22.0098 3.85342 21.3088 3.31842C20.1658 2.44542 19.1938 2.25642 17.9958 2.23242H17.9868H17.9668Z" fill="#FF0000"/>
</svg>
