<svg width="20" height="20" viewBox="0 0 20 20" fill="none" xmlns="http://www.w3.org/2000/svg">
<path d="M9.58333 17.5V10.7167C9.44 10.6278 9.33472 10.5244 9.2675 10.4067C9.20028 10.2889 9.16667 10.1528 9.16667 9.99833C9.16667 9.77611 9.24972 9.58194 9.41583 9.41583C9.58194 9.24972 9.77667 9.16667 10 9.16667C10.2233 9.16667 10.4181 9.24972 10.5842 9.41583C10.7503 9.58194 10.8333 9.77556 10.8333 9.99667C10.8333 10.15 10.7997 10.2869 10.7325 10.4075C10.6653 10.5281 10.56 10.6308 10.4167 10.7158V17.5H9.58333ZM4.84333 15.4492C4.11556 14.7597 3.54306 13.9489 3.12583 13.0167C2.70861 12.0844 2.5 11.0806 2.5 10.005C2.5 8.96611 2.69694 7.99028 3.09083 7.0775C3.48417 6.16472 4.01806 5.37056 4.6925 4.695C5.36694 4.01944 6.16056 3.48472 7.07333 3.09083C7.98611 2.69694 8.96083 2.5 9.9975 2.5C11.0342 2.5 12.0092 2.69694 12.9225 3.09083C13.8358 3.48472 14.63 4.01917 15.305 4.69417C15.9806 5.36972 16.5153 6.16389 16.9092 7.07667C17.3031 7.98944 17.5 8.96444 17.5 10.0017C17.5 11.0778 17.2914 12.0833 16.8742 13.0183C16.4569 13.9528 15.8847 14.7631 15.1575 15.4492L14.5833 14.8592C15.2222 14.2503 15.7292 13.5269 16.1042 12.6892C16.4792 11.8514 16.6667 10.955 16.6667 10C16.6667 8.13889 16.0208 6.5625 14.7292 5.27083C13.4375 3.97917 11.8611 3.33333 10 3.33333C8.13889 3.33333 6.5625 3.97917 5.27083 5.27083C3.97917 6.5625 3.33333 8.13889 3.33333 10C3.33333 10.9583 3.52083 11.8542 3.89583 12.6875C4.27083 13.5208 4.78472 14.2431 5.4375 14.8542L4.84333 15.4492ZM7.19667 13.0942C6.775 12.7108 6.4425 12.2539 6.19917 11.7233C5.95583 11.1928 5.83389 10.6183 5.83333 10C5.83333 8.84278 6.23806 7.85889 7.0475 7.04833C7.85694 6.23778 8.83972 5.83278 9.99583 5.83333C11.1519 5.83389 12.1364 6.23944 12.9492 7.05C13.7619 7.86056 14.1678 8.84611 14.1667 10.0067C14.1667 10.6217 14.045 11.195 13.8017 11.7267C13.5578 12.2589 13.2247 12.7153 12.8025 13.0958L12.2083 12.5C12.5556 12.1806 12.83 11.8056 13.0317 11.375C13.2333 10.9444 13.3339 10.4861 13.3333 10C13.3333 9.08333 13.0069 8.29861 12.3542 7.64583C11.7014 6.99306 10.9167 6.66667 10 6.66667C9.08333 6.66667 8.29861 6.99306 7.64583 7.64583C6.99306 8.29861 6.66667 9.08333 6.66667 10C6.66667 10.5 6.7675 10.9619 6.96917 11.3858C7.17083 11.8097 7.445 12.1811 7.79167 12.5L7.19667 13.0942Z" fill="#1F1F1F"/>
</svg>
